<?xml version="1.0" encoding="UTF-8" standalone="no"?>
<svg
   version="1.1"
   width="1131"
   height="877"
   id="svg698"
   sodipodi:docname="Client (PC) State Diagram.svg"
   inkscape:version="1.2.1 (9c6d41e410, 2022-07-14)"
   xmlns:inkscape="http://www.inkscape.org/namespaces/inkscape"
   xmlns:sodipodi="http://sodipodi.sourceforge.net/DTD/sodipodi-0.dtd"
   xmlns="http://www.w3.org/2000/svg"
   xmlns:svg="http://www.w3.org/2000/svg">
  <sodipodi:namedview
     id="namedview700"
     pagecolor="#ffffff"
     bordercolor="#000000"
     borderopacity="0.25"
     inkscape:showpageshadow="2"
     inkscape:pageopacity="0.0"
     inkscape:pagecheckerboard="0"
     inkscape:deskcolor="#d1d1d1"
     showgrid="false"
     inkscape:zoom="0.91676169"
     inkscape:cx="565.57774"
     inkscape:cy="439.0454"
     inkscape:window-width="1920"
     inkscape:window-height="991"
     inkscape:window-x="-9"
     inkscape:window-y="-9"
     inkscape:window-maximized="1"
     inkscape:current-layer="svg698" />
  <defs
     id="defs2" />
  <g
     id="g696">
    <g
       transform="translate(-22,-30) scale(1,1)"
       id="g366">
      <path
         fill="#C0C0C0"
         stroke="none"
         d="M 375 56.5 C 375 51.2532944 379.2532944 47 384.5 47 C 389.7467056 47 394 51.2532944 394 56.5 C 394 61.7467056 389.7467056 66 384.5 66 C 379.2532944 66 375 61.7467056 375 56.5 Z"
         opacity="0.2"
         id="path364" />
    </g>
    <g
       transform="translate(-22,-30) scale(1,1)"
       id="g370">
      <path
         fill="#000000"
         stroke="none"
         d="M 368 49.5 C 368 44.2532944 372.2532944 40 377.5 40 C 382.7467056 40 387 44.2532944 387 49.5 C 387 54.7467056 382.7467056 59 377.5 59 C 372.2532944 59 368 54.7467056 368 49.5 Z"
         id="path368" />
    </g>
    <g
       transform="translate(-22,-30) scale(1,1)"
       id="g374">
      <path
         fill="#C0C0C0"
         stroke="none"
         d="M 296 116 L 484 116 Q 494 116 494 126 L 494 274 Q 494 284 484 284 L 296 284 Q 286 284 286 274 L 286 126 Q 286 116 296 116 Z"
         opacity="0.2"
         id="path372" />
    </g>
    <g
       transform="translate(-22,-30) scale(1,1)"
       id="g378">
      <path
         fill="#ffffff"
         stroke="none"
         d="M 289 109 L 477 109 Q 487 109 487 119 L 487 267 Q 487 277 477 277 L 289 277 Q 279 277 279 267 L 279 119 Q 279 109 289 109 Z"
         id="path376" />
    </g>
    <g
       transform="translate(-22,-30) scale(1,1)"
       id="g382">
      <path
         fill="none"
         stroke="#000000"
         d="M 289 109 L 477 109 Q 487 109 487 119 L 487 267 Q 487 277 477 277 L 289 277 Q 279 277 279 267 L 279 119 Q 279 109 289 109 Z"
         stroke-miterlimit="10"
         id="path380" />
    </g>
    <g
       transform="translate(-22,-30) scale(1,1)"
       id="g386">
      <path
         fill="none"
         stroke="#000000"
         d="M 279 134 L 487 134"
         stroke-miterlimit="10"
         id="path384" />
    </g>
    <g
       transform="translate(-22,-30) scale(1,1)"
       id="g394">
      <g
         id="g392">
        <path
           fill="none"
           stroke="none"
           id="path388" />
        <text
           fill="#000000"
           stroke="none"
           font-family="Arial"
           font-size="13px"
           font-style="normal"
           font-weight="bold"
           text-decoration="none"
           x="343.14306640625"
           y="128.5"
           id="text390">Wait for event</text>
      </g>
    </g>
    <g
       transform="translate(-22,-30) scale(1,1)"
       id="g398">
      <path
         fill="none"
         stroke="#000000"
         d="M 378 59 L 378 109"
         stroke-miterlimit="10"
         id="path396" />
    </g>
    <g
       transform="translate(-22,-30) scale(1,1)"
       id="g402">
      <path
         fill="none"
         stroke="#000000"
         d="M 373.790482243984 98.83732514237585 L 378 109 L 382.209517756016 98.83732514237585"
         stroke-miterlimit="10"
         id="path400" />
    </g>
    <g
       transform="translate(-22,-30) scale(1,1)"
       id="g406">
      <path
         fill="#C0C0C0"
         stroke="none"
         d="M 654 197.5 L 665.5 188 L 676 197.5 L 665.5 206 L 654 197.5"
         opacity="0.2"
         id="path404" />
    </g>
    <g
       transform="translate(-22,-30) scale(1,1)"
       id="g410">
      <path
         fill="#ffffff"
         stroke="none"
         d="M 647 190 L 658 181 L 669 190 L 658 199 L 647 190"
         id="path408" />
    </g>
    <g
       transform="translate(-22,-30) scale(1,1)"
       id="g414">
      <path
         fill="none"
         stroke="#000000"
         d="M 647 190 L 658 181 L 669 190 L 658 199 L 647 190 L 647 190"
         stroke-miterlimit="10"
         id="path412" />
    </g>
    <g
       transform="translate(-22,-30) scale(1,1)"
       id="g418">
      <path
         fill="none"
         stroke="#000000"
         d="M 487 192 L 647 192"
         stroke-miterlimit="10"
         id="path416" />
    </g>
    <g
       transform="translate(-22,-30) scale(1,1)"
       id="g422">
      <path
         fill="none"
         stroke="#000000"
         d="M 636.8373251423759 196.209517756016 L 647 192 L 636.8373251423758 187.790482243984"
         stroke-miterlimit="10"
         id="path420" />
    </g>
    <g
       transform="translate(-22,-30) scale(1,1)"
       id="g430">
      <g
         id="g428">
        <path
           fill="none"
           stroke="none"
           id="path424" />
        <text
           fill="#000000"
           stroke="none"
           font-family="Arial"
           font-size="13px"
           font-style="normal"
           font-weight="normal"
           text-decoration="none"
           x="525.5"
           y="183.5"
           id="text426">elevator called</text>
      </g>
    </g>
    <g
       transform="translate(-22,-30) scale(1,1)"
       id="g434">
      <path
         fill="#C0C0C0"
         stroke="none"
         d="M 952 116 L 1140 116 Q 1150 116 1150 126 L 1150 274 Q 1150 284 1140 284 L 952 284 Q 942 284 942 274 L 942 126 Q 942 116 952 116 Z"
         opacity="0.2"
         id="path432" />
    </g>
    <g
       transform="translate(-22,-30) scale(1,1)"
       id="g438">
      <path
         fill="#ffffff"
         stroke="none"
         d="M 945 109 L 1133 109 Q 1143 109 1143 119 L 1143 267 Q 1143 277 1133 277 L 945 277 Q 935 277 935 267 L 935 119 Q 935 109 945 109 Z"
         id="path436" />
    </g>
    <g
       transform="translate(-22,-30) scale(1,1)"
       id="g442">
      <path
         fill="none"
         stroke="#000000"
         d="M 945 109 L 1133 109 Q 1143 109 1143 119 L 1143 267 Q 1143 277 1133 277 L 945 277 Q 935 277 935 267 L 935 119 Q 935 109 945 109 Z"
         stroke-miterlimit="10"
         id="path440" />
    </g>
    <g
       transform="translate(-22,-30) scale(1,1)"
       id="g446">
      <path
         fill="none"
         stroke="#000000"
         d="M 935 134 L 1143 134"
         stroke-miterlimit="10"
         id="path444" />
    </g>
    <g
       transform="translate(-22,-30) scale(1,1)"
       id="g454">
      <g
         id="g452">
        <path
           fill="none"
           stroke="none"
           id="path448" />
        <text
           fill="#000000"
           stroke="none"
           font-family="Arial"
           font-size="13px"
           font-style="normal"
           font-weight="bold"
           text-decoration="none"
           x="964.570556640625"
           y="128.5"
           id="text450">Send elevatorCalled msg.</text>
      </g>
    </g>
    <g
       transform="translate(-22,-30) scale(1,1)"
       id="g458">
      <path
         fill="none"
         stroke="#000000"
         d="M 669 192 L 935 192"
         stroke-miterlimit="10"
         id="path456" />
    </g>
    <g
       transform="translate(-22,-30) scale(1,1)"
       id="g462">
      <path
         fill="none"
         stroke="#000000"
         d="M 924.8373251423759 196.209517756016 L 935 192 L 924.8373251423758 187.790482243984"
         stroke-miterlimit="10"
         id="path460" />
    </g>
    <g
       transform="translate(-22,-30) scale(1,1)"
       id="g470">
      <g
         id="g468">
        <path
           fill="none"
           stroke="none"
           id="path464" />
        <text
           fill="#000000"
           stroke="none"
           font-family="Arial"
           font-size="13px"
           font-style="normal"
           font-weight="normal"
           text-decoration="none"
           x="787.5"
           y="180.5"
           id="text466">[else]</text>
      </g>
    </g>
    <g
       transform="translate(-22,-30) scale(1,1)"
       id="g474">
      <path
         fill="none"
         stroke="#000000"
         d="M 656 199 L 656 312 L 416 312 L 416 277"
         stroke-miterlimit="10"
         id="path472" />
    </g>
    <g
       transform="translate(-22,-30) scale(1,1)"
       id="g478">
      <path
         fill="none"
         stroke="#000000"
         d="M 420.209517756016 287.16267485762415 L 416 277 L 411.790482243984 287.16267485762415"
         stroke-miterlimit="10"
         id="path476" />
    </g>
    <g
       transform="translate(-22,-30) scale(1,1)"
       id="g486">
      <g
         id="g484">
        <path
           fill="none"
           stroke="none"
           id="path480" />
        <text
           fill="#000000"
           stroke="none"
           font-family="Arial"
           font-size="13px"
           font-style="normal"
           font-weight="normal"
           text-decoration="none"
           x="459.5"
           y="333.5"
           id="text482">[busy elevator count == N]</text>
      </g>
    </g>
    <g
       transform="translate(-22,-30) scale(1,1)"
       id="g490">
      <path
         fill="#C0C0C0"
         stroke="none"
         d="M 952 670 L 1140 670 Q 1150 670 1150 680 L 1150 828 Q 1150 838 1140 838 L 952 838 Q 942 838 942 828 L 942 680 Q 942 670 952 670 Z"
         opacity="0.2"
         id="path488" />
    </g>
    <g
       transform="translate(-22,-30) scale(1,1)"
       id="g494">
      <path
         fill="#ffffff"
         stroke="none"
         d="M 945 663 L 1133 663 Q 1143 663 1143 673 L 1143 821 Q 1143 831 1133 831 L 945 831 Q 935 831 935 821 L 935 673 Q 935 663 945 663 Z"
         id="path492" />
    </g>
    <g
       transform="translate(-22,-30) scale(1,1)"
       id="g498">
      <path
         fill="none"
         stroke="#000000"
         d="M 945 663 L 1133 663 Q 1143 663 1143 673 L 1143 821 Q 1143 831 1133 831 L 945 831 Q 935 831 935 821 L 935 673 Q 935 663 945 663 Z"
         stroke-miterlimit="10"
         id="path496" />
    </g>
    <g
       transform="translate(-22,-30) scale(1,1)"
       id="g502">
      <path
         fill="none"
         stroke="#000000"
         d="M 935 688 L 1143 688"
         stroke-miterlimit="10"
         id="path500" />
    </g>
    <g
       transform="translate(-22,-30) scale(1,1)"
       id="g510">
      <g
         id="g508">
        <path
           fill="none"
           stroke="none"
           id="path504" />
        <text
           fill="#000000"
           stroke="none"
           font-family="Arial"
           font-size="13px"
           font-style="normal"
           font-weight="bold"
           text-decoration="none"
           x="977.21826171875"
           y="682.5"
           id="text506">Send goToFloor msg.</text>
      </g>
    </g>
    <g
       transform="translate(-22,-30) scale(1,1)"
       id="g514">
      <path
         fill="#C0C0C0"
         stroke="none"
         d="M 577 410 L 765 410 Q 775 410 775 420 L 775 568 Q 775 578 765 578 L 577 578 Q 567 578 567 568 L 567 420 Q 567 410 577 410 Z"
         opacity="0.2"
         id="path512" />
    </g>
    <g
       transform="translate(-22,-30) scale(1,1)"
       id="g518">
      <path
         fill="#ffffff"
         stroke="none"
         d="M 570 403 L 758 403 Q 768 403 768 413 L 768 561 Q 768 571 758 571 L 570 571 Q 560 571 560 561 L 560 413 Q 560 403 570 403 Z"
         id="path516" />
    </g>
    <g
       transform="translate(-22,-30) scale(1,1)"
       id="g522">
      <path
         fill="none"
         stroke="#000000"
         d="M 570 403 L 758 403 Q 768 403 768 413 L 768 561 Q 768 571 758 571 L 570 571 Q 560 571 560 561 L 560 413 Q 560 403 570 403 Z"
         stroke-miterlimit="10"
         id="path520" />
    </g>
    <g
       transform="translate(-22,-30) scale(1,1)"
       id="g526">
      <path
         fill="none"
         stroke="#000000"
         d="M 560 428 L 768 428"
         stroke-miterlimit="10"
         id="path524" />
    </g>
    <g
       transform="translate(-22,-30) scale(1,1)"
       id="g534">
      <g
         id="g532">
        <path
           fill="none"
           stroke="none"
           id="path528" />
        <text
           fill="#000000"
           stroke="none"
           font-family="Arial"
           font-size="13px"
           font-style="normal"
           font-weight="bold"
           text-decoration="none"
           x="608.727783203125"
           y="422.5"
           id="text530">Display information</text>
      </g>
    </g>
    <g
       transform="translate(-22,-30) scale(1,1)"
       id="g538">
      <path
         fill="none"
         stroke="#000000"
         d="M 560 496 L 352 496 L 352 277"
         stroke-miterlimit="10"
         id="path536" />
    </g>
    <g
       transform="translate(-22,-30) scale(1,1)"
       id="g542">
      <path
         fill="none"
         stroke="#000000"
         d="M 356.209517756016 287.16267485762415 L 352 277 L 347.790482243984 287.16267485762415"
         stroke-miterlimit="10"
         id="path540" />
    </g>
    <g
       transform="translate(-22,-30) scale(1,1)"
       id="g550">
      <g
         id="g548">
        <path
           fill="none"
           stroke="none"
           id="path544" />
        <text
           fill="#000000"
           stroke="none"
           font-family="Arial"
           font-size="13px"
           font-style="normal"
           font-weight="normal"
           text-decoration="none"
           x="341.5"
           y="515.5"
           id="text546">information displayed</text>
      </g>
    </g>
    <g
       transform="translate(-22,-30) scale(1,1)"
       id="g554">
      <path
         fill="#C0C0C0"
         stroke="none"
         d="M 296 670 L 484 670 Q 494 670 494 680 L 494 828 Q 494 838 484 838 L 296 838 Q 286 838 286 828 L 286 680 Q 286 670 296 670 Z"
         opacity="0.2"
         id="path552" />
    </g>
    <g
       transform="translate(-22,-30) scale(1,1)"
       id="g558">
      <path
         fill="#ffffff"
         stroke="none"
         d="M 289 663 L 477 663 Q 487 663 487 673 L 487 821 Q 487 831 477 831 L 289 831 Q 279 831 279 821 L 279 673 Q 279 663 289 663 Z"
         id="path556" />
    </g>
    <g
       transform="translate(-22,-30) scale(1,1)"
       id="g562">
      <path
         fill="none"
         stroke="#000000"
         d="M 289 663 L 477 663 Q 487 663 487 673 L 487 821 Q 487 831 477 831 L 289 831 Q 279 831 279 821 L 279 673 Q 279 663 289 663 Z"
         stroke-miterlimit="10"
         id="path560" />
    </g>
    <g
       transform="translate(-22,-30) scale(1,1)"
       id="g566">
      <path
         fill="none"
         stroke="#000000"
         d="M 279 688 L 487 688"
         stroke-miterlimit="10"
         id="path564" />
    </g>
    <g
       transform="translate(-22,-30) scale(1,1)"
       id="g574">
      <g
         id="g572">
        <path
           fill="none"
           stroke="none"
           id="path568" />
        <text
           fill="#000000"
           stroke="none"
           font-family="Arial"
           font-size="13px"
           font-style="normal"
           font-weight="bold"
           text-decoration="none"
           x="300.62646484375"
           y="682.5"
           id="text570">Send freeBusyElevator msg.</text>
      </g>
    </g>
    <g
       transform="translate(-22,-30) scale(1,1)"
       id="g578">
      <path
         fill="none"
         stroke="#000000"
         d="M 279 232 L 184 232 L 184 752 L 279 752"
         stroke-miterlimit="10"
         id="path576" />
    </g>
    <g
       transform="translate(-22,-30) scale(1,1)"
       id="g582">
      <path
         fill="none"
         stroke="#000000"
         d="M 268.83732514237585 756.209517756016 L 279 752 L 268.83732514237585 747.790482243984"
         stroke-miterlimit="10"
         id="path580" />
    </g>
    <g
       transform="translate(-22,-30) scale(1,1)"
       id="g590">
      <g
         id="g588">
        <path
           fill="none"
           stroke="none"
           id="path584" />
        <text
           fill="#000000"
           stroke="none"
           font-family="Arial"
           font-size="13px"
           font-style="normal"
           font-weight="normal"
           text-decoration="none"
           x="189.5"
           y="500.5"
           id="text586">elevator finished</text>
      </g>
    </g>
    <g
       transform="translate(-22,-30) scale(1,1)"
       id="g594">
      <path
         fill="none"
         stroke="#000000"
         d="M 279 168 L 120 168 L 120 896 L 1048 896 L 1048 831"
         stroke-miterlimit="10"
         id="path592" />
    </g>
    <g
       transform="translate(-22,-30) scale(1,1)"
       id="g598">
      <path
         fill="none"
         stroke="#000000"
         d="M 1052.2095177560159 841.1626748576241 L 1048 831 L 1043.7904822439841 841.1626748576241"
         stroke-miterlimit="10"
         id="path596" />
    </g>
    <g
       transform="translate(-22,-30) scale(1,1)"
       id="g606">
      <g
         id="g604">
        <path
           fill="none"
           stroke="none"
           id="path600" />
        <text
           fill="#000000"
           stroke="none"
           font-family="Arial"
           font-size="13px"
           font-style="normal"
           font-weight="normal"
           text-decoration="none"
           x="31.5"
           y="499.5"
           id="text602">floor selected</text>
      </g>
    </g>
    <g
       transform="translate(-22,-30) scale(1,1)"
       id="g610">
      <path
         fill="none"
         stroke="#000000"
         d="M 487 747 L 608 747 L 608 571"
         stroke-miterlimit="10"
         id="path608" />
    </g>
    <g
       transform="translate(-22,-30) scale(1,1)"
       id="g614">
      <path
         fill="none"
         stroke="#000000"
         d="M 612.209517756016 581.1626748576241 L 608 571 L 603.790482243984 581.1626748576241"
         stroke-miterlimit="10"
         id="path612" />
    </g>
    <g
       transform="translate(-22,-30) scale(1,1)"
       id="g622">
      <g
         id="g620">
        <path
           fill="none"
           stroke="none"
           id="path616" />
        <text
           fill="#000000"
           stroke="none"
           font-family="Arial"
           font-size="13px"
           font-style="normal"
           font-weight="normal"
           text-decoration="none"
           x="526.5"
           y="764.5"
           id="text618">message sent</text>
      </g>
    </g>
    <g
       transform="translate(-22,-30) scale(1,1)"
       id="g626">
      <path
         fill="none"
         stroke="#000000"
         d="M 935 747 L 720 747 L 720 571"
         stroke-miterlimit="10"
         id="path624" />
    </g>
    <g
       transform="translate(-22,-30) scale(1,1)"
       id="g630">
      <path
         fill="none"
         stroke="#000000"
         d="M 724.209517756016 581.1626748576241 L 720 571 L 715.790482243984 581.1626748576241"
         stroke-miterlimit="10"
         id="path628" />
    </g>
    <g
       transform="translate(-22,-30) scale(1,1)"
       id="g638">
      <g
         id="g636">
        <path
           fill="none"
           stroke="none"
           id="path632" />
        <text
           fill="#000000"
           stroke="none"
           font-family="Arial"
           font-size="13px"
           font-style="normal"
           font-weight="normal"
           text-decoration="none"
           x="694.5"
           y="771.5"
           id="text634">message sent</text>
      </g>
    </g>
    <g
       transform="translate(-22,-30) scale(1,1)"
       id="g642">
      <path
         fill="#C0C0C0"
         stroke="none"
         d="M 952 409 L 1140 409 Q 1150 409 1150 419 L 1150 569 Q 1150 579 1140 579 L 952 579 Q 942 579 942 569 L 942 419 Q 942 409 952 409 Z"
         opacity="0.2"
         id="path640" />
    </g>
    <g
       transform="translate(-22,-30) scale(1,1)"
       id="g646">
      <path
         fill="#ffffff"
         stroke="none"
         d="M 945 402 L 1133 402 Q 1143 402 1143 412 L 1143 562 Q 1143 572 1133 572 L 945 572 Q 935 572 935 562 L 935 412 Q 935 402 945 402 Z"
         id="path644" />
    </g>
    <g
       transform="translate(-22,-30) scale(1,1)"
       id="g650">
      <path
         fill="none"
         stroke="#000000"
         d="M 945 402 L 1133 402 Q 1143 402 1143 412 L 1143 562 Q 1143 572 1133 572 L 945 572 Q 935 572 935 562 L 935 412 Q 935 402 945 402 Z"
         stroke-miterlimit="10"
         id="path648" />
    </g>
    <g
       transform="translate(-22,-30) scale(1,1)"
       id="g654">
      <path
         fill="none"
         stroke="#000000"
         d="M 935 427 L 1143 427"
         stroke-miterlimit="10"
         id="path652" />
    </g>
    <g
       transform="translate(-22,-30) scale(1,1)"
       id="g662">
      <g
         id="g660">
        <path
           fill="none"
           stroke="none"
           id="path656" />
        <text
           fill="#000000"
           stroke="none"
           font-family="Arial"
           font-size="13px"
           font-style="normal"
           font-weight="bold"
           text-decoration="none"
           x="988.304443359375"
           y="421.5"
           id="text658">Wait for response</text>
      </g>
    </g>
    <g
       transform="translate(-22,-30) scale(1,1)"
       id="g666">
      <path
         fill="none"
         stroke="#000000"
         d="M 1032 277 L 1032 402"
         stroke-miterlimit="10"
         id="path664" />
    </g>
    <g
       transform="translate(-22,-30) scale(1,1)"
       id="g670">
      <path
         fill="none"
         stroke="#000000"
         d="M 1027.7904822439841 391.83732514237585 L 1032 402 L 1036.2095177560159 391.83732514237585"
         stroke-miterlimit="10"
         id="path668" />
    </g>
    <g
       transform="translate(-22,-30) scale(1,1)"
       id="g678">
      <g
         id="g676">
        <path
           fill="none"
           stroke="none"
           id="path672" />
        <text
           fill="#000000"
           stroke="none"
           font-family="Arial"
           font-size="13px"
           font-style="normal"
           font-weight="normal"
           text-decoration="none"
           x="1038.5"
           y="344.5"
           id="text674">message sent</text>
      </g>
    </g>
    <g
       transform="translate(-22,-30) scale(1,1)"
       id="g682">
      <path
         fill="none"
         stroke="#000000"
         d="M 935 490 L 768 490"
         stroke-miterlimit="10"
         id="path680" />
    </g>
    <g
       transform="translate(-22,-30) scale(1,1)"
       id="g686">
      <path
         fill="none"
         stroke="#000000"
         d="M 778.1626748576241 485.790482243984 L 768 490 L 778.1626748576241 494.209517756016"
         stroke-miterlimit="10"
         id="path684" />
    </g>
    <g
       transform="translate(-22,-30) scale(1,1)"
       id="g694">
      <g
         id="g692">
        <path
           fill="none"
           stroke="none"
           id="path688" />
        <text
           fill="#000000"
           stroke="none"
           font-family="Arial"
           font-size="13px"
           font-style="normal"
           font-weight="normal"
           text-decoration="none"
           x="796.5"
           y="511.5"
           id="text690">response received</text>
      </g>
    </g>
  </g>
</svg>
