<?xml version="1.0" encoding="UTF-8" standalone="no"?>
<svg
   version="1.1"
   width="1748"
   height="611"
   id="svg1056"
   sodipodi:docname="Sequence Diagram.svg"
   inkscape:version="1.2.1 (9c6d41e410, 2022-07-14)"
   xmlns:inkscape="http://www.inkscape.org/namespaces/inkscape"
   xmlns:sodipodi="http://sodipodi.sourceforge.net/DTD/sodipodi-0.dtd"
   xmlns="http://www.w3.org/2000/svg"
   xmlns:svg="http://www.w3.org/2000/svg">
  <sodipodi:namedview
     id="namedview1058"
     pagecolor="#ffffff"
     bordercolor="#000000"
     borderopacity="0.25"
     inkscape:showpageshadow="2"
     inkscape:pageopacity="0.0"
     inkscape:pagecheckerboard="0"
     inkscape:deskcolor="#d1d1d1"
     showgrid="false"
     inkscape:zoom="0.74942792"
     inkscape:cx="874.66718"
     inkscape:cy="306.23359"
     inkscape:window-width="1920"
     inkscape:window-height="991"
     inkscape:window-x="-9"
     inkscape:window-y="-9"
     inkscape:window-maximized="1"
     inkscape:current-layer="svg1056" />
  <defs
     id="defs2" />
  <g
     id="g1054">
    <g
       transform="translate(10,10) scale(1,1)"
       id="g384">
      <path
         fill="none"
         stroke="#000000"
         d="M 0 0 L 1728 0 L 1728 591 L 0 591 L 0 0"
         stroke-miterlimit="10"
         id="path382" />
    </g>
    <g
       transform="translate(10,10) scale(1,1)"
       id="g388">
      <path
         fill="#ffffff"
         stroke="none"
         d="M 0 0 L 0 22 L 141.01708984375 22 L 152.01708984375 11 L 152.01708984375 0 L 0 0"
         id="path386" />
    </g>
    <g
       transform="translate(10,10) scale(1,1)"
       id="g392">
      <path
         fill="none"
         stroke="#000000"
         d="M 0 0 L 0 22 L 141.01708984375 22 L 152.01708984375 11 L 152.01708984375 0 L 0 0 L 0 0"
         stroke-miterlimit="10"
         id="path390" />
    </g>
    <g
       transform="translate(10,10) scale(1,1)"
       id="g400">
      <g
         id="g398">
        <path
           fill="none"
           stroke="none"
           id="path394" />
        <text
           fill="#000000"
           stroke="none"
           font-family="Arial"
           font-size="13px"
           font-style="normal"
           font-weight="normal"
           text-decoration="none"
           x="24.72998046875"
           y="17.5"
           id="text396">Sequence Diagram</text>
      </g>
    </g>
    <g
       transform="translate(10,10) scale(1,1)"
       id="g408">
      <g
         id="g406">
        <path
           fill="none"
           stroke="none"
           id="path402" />
        <text
           fill="#000000"
           stroke="none"
           font-family="Arial"
           font-size="13px"
           font-style="normal"
           font-weight="bold"
           text-decoration="none"
           x="5"
           y="17.5"
           id="text404">sd</text>
      </g>
    </g>
    <g
       transform="translate(10,10) scale(1,1)"
       id="g412">
      <rect
         fill="#C0C0C0"
         stroke="none"
         x="175"
         y="47"
         width="97.69189453125"
         height="39"
         opacity="0.2"
         id="rect410" />
    </g>
    <g
       transform="translate(10,10) scale(1,1)"
       id="g416">
      <rect
         fill="#ffffff"
         stroke="none"
         x="168"
         y="40"
         width="97.69189453125"
         height="39"
         id="rect414" />
    </g>
    <g
       transform="translate(10,10) scale(1,1)"
       id="g420">
      <path
         fill="none"
         stroke="#000000"
         d="M 168 40 L 265.69189453125 40 L 265.69189453125 79 L 168 79 L 168 40 Z Z"
         stroke-miterlimit="10"
         id="path418" />
    </g>
    <g
       transform="translate(10,10) scale(1,1)"
       id="g428">
      <g
         id="g426">
        <path
           fill="none"
           stroke="none"
           id="path422" />
        <text
           fill="#000000"
           stroke="none"
           font-family="Arial"
           font-size="13px"
           font-style="normal"
           font-weight="bold"
           text-decoration="none"
           x="181.438720703125"
           y="59.5"
           id="text424">:FloorButton</text>
      </g>
    </g>
    <g
       transform="translate(10,10) scale(1,1)"
       id="g432">
      <path
         fill="none"
         stroke="#000000"
         d="M 217.5 80 L 217.5 552"
         stroke-miterlimit="10"
         stroke-dasharray="3"
         id="path430" />
    </g>
    <g
       transform="translate(10,10) scale(1,1)"
       id="g436">
      <rect
         fill="#C0C0C0"
         stroke="none"
         x="311"
         y="47"
         width="89.0400390625"
         height="39"
         opacity="0.2"
         id="rect434" />
    </g>
    <g
       transform="translate(10,10) scale(1,1)"
       id="g440">
      <rect
         fill="#ffffff"
         stroke="none"
         x="304"
         y="40"
         width="89.0400390625"
         height="39"
         id="rect438" />
    </g>
    <g
       transform="translate(10,10) scale(1,1)"
       id="g444">
      <path
         fill="none"
         stroke="#000000"
         d="M 304 40 L 393.0400390625 40 L 393.0400390625 79 L 304 79 L 304 40 Z Z"
         stroke-miterlimit="10"
         id="path442" />
    </g>
    <g
       transform="translate(10,10) scale(1,1)"
       id="g452">
      <g
         id="g450">
        <path
           fill="none"
           stroke="none"
           id="path446" />
        <text
           fill="#000000"
           stroke="none"
           font-family="Arial"
           font-size="13px"
           font-style="normal"
           font-weight="bold"
           text-decoration="none"
           x="316.724609375"
           y="59.5"
           id="text448">:CallButton</text>
      </g>
    </g>
    <g
       transform="translate(10,10) scale(1,1)"
       id="g456">
      <path
         fill="none"
         stroke="#000000"
         d="M 349.5 80 L 349.5 544"
         stroke-miterlimit="10"
         stroke-dasharray="3"
         id="path454" />
    </g>
    <g
       transform="translate(10,10) scale(1,1)"
       id="g460">
      <rect
         fill="#C0C0C0"
         stroke="none"
         x="567"
         y="47"
         width="119.39453125"
         height="39"
         opacity="0.2"
         id="rect458" />
    </g>
    <g
       transform="translate(10,10) scale(1,1)"
       id="g464">
      <rect
         fill="#ffffff"
         stroke="none"
         x="560"
         y="40"
         width="119.39453125"
         height="39"
         id="rect462" />
    </g>
    <g
       transform="translate(10,10) scale(1,1)"
       id="g468">
      <path
         fill="none"
         stroke="#000000"
         d="M 560 40 L 679.39453125 40 L 679.39453125 79 L 560 79 L 560 40 Z Z"
         stroke-miterlimit="10"
         id="path466" />
    </g>
    <g
       transform="translate(10,10) scale(1,1)"
       id="g476">
      <g
         id="g474">
        <path
           fill="none"
           stroke="none"
           id="path470" />
        <text
           fill="#000000"
           stroke="none"
           font-family="Arial"
           font-size="13px"
           font-style="normal"
           font-weight="bold"
           text-decoration="none"
           x="574.175048828125"
           y="59.5"
           id="text472">:LocalController</text>
      </g>
    </g>
    <g
       transform="translate(10,10) scale(1,1)"
       id="g480">
      <path
         fill="none"
         stroke="#000000"
         d="M 620.5 80 L 620.5 544"
         stroke-miterlimit="10"
         stroke-dasharray="3"
         id="path478" />
    </g>
    <g
       transform="translate(10,10) scale(1,1)"
       id="g484">
      <rect
         fill="#C0C0C0"
         stroke="none"
         x="887"
         y="47"
         width="133.82275390625"
         height="39"
         opacity="0.2"
         id="rect482" />
    </g>
    <g
       transform="translate(10,10) scale(1,1)"
       id="g488">
      <rect
         fill="#ffffff"
         stroke="none"
         x="880"
         y="40"
         width="133.82275390625"
         height="39"
         id="rect486" />
    </g>
    <g
       transform="translate(10,10) scale(1,1)"
       id="g492">
      <path
         fill="none"
         stroke="#000000"
         d="M 880 40 L 1013.82275390625 40 L 1013.82275390625 79 L 880 79 L 880 40 Z Z"
         stroke-miterlimit="10"
         id="path490" />
    </g>
    <g
       transform="translate(10,10) scale(1,1)"
       id="g500">
      <g
         id="g498">
        <path
           fill="none"
           stroke="none"
           id="path494" />
        <text
           fill="#000000"
           stroke="none"
           font-family="Arial"
           font-size="13px"
           font-style="normal"
           font-weight="bold"
           text-decoration="none"
           x="893.445068359375"
           y="59.5"
           id="text496">:ClientComModule</text>
      </g>
    </g>
    <g
       transform="translate(10,10) scale(1,1)"
       id="g504">
      <path
         fill="none"
         stroke="#000000"
         d="M 947.5 80 L 947.5 568"
         stroke-miterlimit="10"
         stroke-dasharray="3"
         id="path502" />
    </g>
    <g
       transform="translate(10,10) scale(1,1)"
       id="g508">
      <rect
         fill="#C0C0C0"
         stroke="none"
         x="1543"
         y="47"
         width="125.919921875"
         height="39"
         opacity="0.2"
         id="rect506" />
    </g>
    <g
       transform="translate(10,10) scale(1,1)"
       id="g512">
      <rect
         fill="#ffffff"
         stroke="none"
         x="1536"
         y="40"
         width="125.919921875"
         height="39"
         id="rect510" />
    </g>
    <g
       transform="translate(10,10) scale(1,1)"
       id="g516">
      <path
         fill="none"
         stroke="#000000"
         d="M 1536 40 L 1661.919921875 40 L 1661.919921875 79 L 1536 79 L 1536 40 Z Z"
         stroke-miterlimit="10"
         id="path514" />
    </g>
    <g
       transform="translate(10,10) scale(1,1)"
       id="g524">
      <g
         id="g522">
        <path
           fill="none"
           stroke="none"
           id="path518" />
        <text
           fill="#000000"
           stroke="none"
           font-family="Arial"
           font-size="13px"
           font-style="normal"
           font-weight="bold"
           text-decoration="none"
           x="1549.832275390625"
           y="59.5"
           id="text520">:ServerController</text>
      </g>
    </g>
    <g
       transform="translate(10,10) scale(1,1)"
       id="g528">
      <path
         fill="none"
         stroke="#000000"
         d="M 1599.5 80 L 1599.5 560"
         stroke-miterlimit="10"
         stroke-dasharray="3"
         id="path526" />
    </g>
    <g
       transform="translate(10,10) scale(1,1)"
       id="g532">
      <rect
         fill="#C0C0C0"
         stroke="none"
         x="1215"
         y="47"
         width="138.18994140625"
         height="39"
         opacity="0.2"
         id="rect530" />
    </g>
    <g
       transform="translate(10,10) scale(1,1)"
       id="g536">
      <rect
         fill="#ffffff"
         stroke="none"
         x="1208"
         y="40"
         width="138.18994140625"
         height="39"
         id="rect534" />
    </g>
    <g
       transform="translate(10,10) scale(1,1)"
       id="g540">
      <path
         fill="none"
         stroke="#000000"
         d="M 1208 40 L 1346.18994140625 40 L 1346.18994140625 79 L 1208 79 L 1208 40 Z Z"
         stroke-miterlimit="10"
         id="path538" />
    </g>
    <g
       transform="translate(10,10) scale(1,1)"
       id="g548">
      <g
         id="g546">
        <path
           fill="none"
           stroke="none"
           id="path542" />
        <text
           fill="#000000"
           stroke="none"
           font-family="Arial"
           font-size="13px"
           font-style="normal"
           font-weight="bold"
           text-decoration="none"
           x="1221.102294921875"
           y="59.5"
           id="text544">:ServerComModule</text>
      </g>
    </g>
    <g
       transform="translate(10,10) scale(1,1)"
       id="g552">
      <path
         fill="none"
         stroke="#000000"
         d="M 1278.5 80 L 1278.5 576"
         stroke-miterlimit="10"
         stroke-dasharray="3"
         id="path550" />
    </g>
    <g
       transform="translate(10,10) scale(1,1)"
       id="g556">
      <path
         fill="#ffffff"
         stroke="none"
         d="M 57.86314541903409 47.3 C 57.86314541903409 43.82060576 60.74154714121591 41 64.292236328125 41 C 67.8429255150341 41 70.7213272372159 43.82060576 70.7213272372159 47.3 C 70.7213272372159 50.779394239999995 67.8429255150341 53.6 64.292236328125 53.6 C 60.74154714121591 53.6 57.86314541903409 50.779394239999995 57.86314541903409 47.3 Z"
         id="path554" />
    </g>
    <g
       transform="translate(10,10) scale(1,1)"
       id="g560">
      <path
         fill="none"
         stroke="#000000"
         d="M 57.86314541903409 47.3 C 57.86314541903409 43.82060576 60.74154714121591 41 64.292236328125 41 C 67.8429255150341 41 70.7213272372159 43.82060576 70.7213272372159 47.3 C 70.7213272372159 50.779394239999995 67.8429255150341 53.6 64.292236328125 53.6 C 60.74154714121591 53.6 57.86314541903409 50.779394239999995 57.86314541903409 47.3 Z"
         stroke-miterlimit="10"
         id="path558" />
    </g>
    <g
       transform="translate(10,10) scale(1,1)"
       id="g564">
      <path
         fill="none"
         stroke="#000000"
         d="M 64.292236328125 53.6 L 64.292236328125 66.4"
         stroke-miterlimit="10"
         id="path562" />
    </g>
    <g
       transform="translate(10,10) scale(1,1)"
       id="g568">
      <path
         fill="none"
         stroke="#000000"
         d="M 57.484963600852275 58.4 L 71.09950905539773 58.4"
         stroke-miterlimit="10"
         id="path566" />
    </g>
    <g
       transform="translate(10,10) scale(1,1)"
       id="g572">
      <path
         fill="none"
         stroke="#000000"
         d="M 64.292236328125 66.4 L 54.83769087357955 79"
         stroke-miterlimit="10"
         id="path570" />
    </g>
    <g
       transform="translate(10,10) scale(1,1)"
       id="g576">
      <path
         fill="none"
         stroke="#000000"
         d="M 64.292236328125 66.4 L 73.74678178267045 79"
         stroke-miterlimit="10"
         id="path574" />
    </g>
    <g
       transform="translate(10,10) scale(1,1)"
       id="g584">
      <g
         id="g582">
        <path
           fill="none"
           stroke="none"
           id="path578" />
        <text
           fill="#ffffff"
           stroke="none"
           font-family="Arial"
           font-size="13px"
           font-style="normal"
           font-weight="bold"
           text-decoration="none"
           x="46.956787109375"
           y="99.5"
           id="text580">: User</text>
      </g>
    </g>
    <g
       transform="translate(10,10) scale(1,1)"
       id="g588">
      <path
         fill="none"
         stroke="#000000"
         d="M 65.5 105 L 65.5 560"
         stroke-miterlimit="10"
         stroke-dasharray="3"
         id="path586" />
    </g>
    <g
       transform="translate(10,10) scale(1,1)"
       id="g596">
      <g
         id="g594">
        <path
           fill="none"
           stroke="none"
           id="path590" />
        <text
           fill="#000000"
           stroke="none"
           font-family="Arial"
           font-size="13px"
           font-style="normal"
           font-weight="normal"
           text-decoration="none"
           x="49"
           y="98"
           id="text592">User</text>
      </g>
    </g>
    <g
       transform="translate(10,10) scale(1,1)"
       id="g600">
      <path
         fill="none"
         stroke="#000000"
         d="M 65 120 L 342 120"
         stroke-miterlimit="10"
         id="path598" />
    </g>
    <g
       transform="translate(10,10) scale(1,1)"
       id="g604">
      <path
         fill="#000000"
         stroke="none"
         d="M 331.83732514237585 124.20951775601598 L 342 120 L 331.83732514237585 115.79048224398402"
         id="path602" />
    </g>
    <g
       transform="translate(10,10) scale(1,1)"
       id="g608">
      <path
         fill="none"
         stroke="#000000"
         d="M 331.83732514237585 124.20951775601598 L 342 120 L 331.83732514237585 115.79048224398402 L 331.83732514237585 124.20951775601598"
         stroke-miterlimit="10"
         id="path606" />
    </g>
    <g
       transform="translate(10,10) scale(1,1)"
       id="g616">
      <g
         id="g614">
        <path
           fill="none"
           stroke="none"
           id="path610" />
        <text
           fill="#000000"
           stroke="none"
           font-family="Arial"
           font-size="13px"
           font-style="normal"
           font-weight="normal"
           text-decoration="none"
           x="147.5"
           y="116.5"
           id="text612">1 : buttonPressed()</text>
      </g>
    </g>
    <g
       transform="translate(10,10) scale(1,1)"
       id="g620">
      <rect
         fill="#ffffff"
         stroke="none"
         x="342"
         y="120"
         width="13"
         height="96"
         id="rect618" />
    </g>
    <g
       transform="translate(10,10) scale(1,1)"
       id="g624">
      <path
         fill="none"
         stroke="#000000"
         d="M 342 120 L 355 120 L 355 216 L 342 216 L 342 120 Z Z"
         stroke-miterlimit="10"
         id="path622" />
    </g>
    <g
       transform="translate(10,10) scale(1,1)"
       id="g628">
      <path
         fill="none"
         stroke="#000000"
         d="M 355 128 L 613 128"
         stroke-miterlimit="10"
         id="path626" />
    </g>
    <g
       transform="translate(10,10) scale(1,1)"
       id="g632">
      <path
         fill="#000000"
         stroke="none"
         d="M 602.8373251423759 132.209517756016 L 613 128 L 602.8373251423758 123.79048224398402"
         id="path630" />
    </g>
    <g
       transform="translate(10,10) scale(1,1)"
       id="g636">
      <path
         fill="none"
         stroke="#000000"
         d="M 602.8373251423759 132.209517756016 L 613 128 L 602.8373251423758 123.79048224398402 L 602.8373251423759 132.209517756016"
         stroke-miterlimit="10"
         id="path634" />
    </g>
    <g
       transform="translate(10,10) scale(1,1)"
       id="g644">
      <g
         id="g642">
        <path
           fill="none"
           stroke="none"
           id="path638" />
        <text
           fill="#000000"
           stroke="none"
           font-family="Arial"
           font-size="13px"
           font-style="normal"
           font-weight="normal"
           text-decoration="none"
           x="420.5"
           y="124.5"
           id="text640">2 : areElevatorsFree()</text>
      </g>
    </g>
    <g
       transform="translate(10,10) scale(1,1)"
       id="g648">
      <rect
         fill="#ffffff"
         stroke="none"
         x="613"
         y="128"
         width="13"
         height="32"
         id="rect646" />
    </g>
    <g
       transform="translate(10,10) scale(1,1)"
       id="g652">
      <path
         fill="none"
         stroke="#000000"
         d="M 613 128 L 626 128 L 626 160 L 613 160 L 613 128 Z Z"
         stroke-miterlimit="10"
         id="path650" />
    </g>
    <g
       transform="translate(10,10) scale(1,1)"
       id="g656">
      <path
         fill="none"
         stroke="#000000"
         d="M 620 160 L 355 160"
         stroke-miterlimit="10"
         stroke-dasharray="3"
         id="path654" />
    </g>
    <g
       transform="translate(10,10) scale(1,1)"
       id="g660">
      <path
         fill="none"
         stroke="#000000"
         d="M 365.16267485762415 155.790482243984 L 355 160 L 365.16267485762415 164.209517756016"
         stroke-miterlimit="10"
         id="path658" />
    </g>
    <g
       transform="translate(10,10) scale(1,1)"
       id="g668">
      <g
         id="g666">
        <path
           fill="none"
           stroke="none"
           id="path662" />
        <text
           fill="#000000"
           stroke="none"
           font-family="Arial"
           font-size="13px"
           font-style="normal"
           font-weight="normal"
           text-decoration="none"
           x="427.5"
           y="176.5"
           id="text664">3 : areElevatorsFree</text>
      </g>
    </g>
    <g
       transform="translate(10,10) scale(1,1)"
       id="g672">
      <path
         fill="none"
         stroke="#000000"
         d="M 355 208 L 613 208"
         stroke-miterlimit="10"
         id="path670" />
    </g>
    <g
       transform="translate(10,10) scale(1,1)"
       id="g676">
      <path
         fill="#000000"
         stroke="none"
         d="M 602.8373251423759 212.209517756016 L 613 208 L 602.8373251423758 203.790482243984"
         id="path674" />
    </g>
    <g
       transform="translate(10,10) scale(1,1)"
       id="g680">
      <path
         fill="none"
         stroke="#000000"
         d="M 602.8373251423759 212.209517756016 L 613 208 L 602.8373251423758 203.790482243984 L 602.8373251423759 212.209517756016"
         stroke-miterlimit="10"
         id="path678" />
    </g>
    <g
       transform="translate(10,10) scale(1,1)"
       id="g688">
      <g
         id="g686">
        <path
           fill="none"
           stroke="none"
           id="path682" />
        <text
           fill="#000000"
           stroke="none"
           font-family="Arial"
           font-size="13px"
           font-style="normal"
           font-weight="normal"
           text-decoration="none"
           x="385.5"
           y="204.5"
           id="text684">4 : callButtonClicked(floorNumber)</text>
      </g>
    </g>
    <g
       transform="translate(10,10) scale(1,1)"
       id="g692">
      <rect
         fill="#ffffff"
         stroke="none"
         x="613"
         y="208"
         width="13"
         height="120"
         id="rect690" />
    </g>
    <g
       transform="translate(10,10) scale(1,1)"
       id="g696">
      <path
         fill="none"
         stroke="#000000"
         d="M 613 208 L 626 208 L 626 328 L 613 328 L 613 208 Z Z"
         stroke-miterlimit="10"
         id="path694" />
    </g>
    <g
       transform="translate(10,10) scale(1,1)"
       id="g700">
      <path
         fill="none"
         stroke="#000000"
         d="M 626 216 L 940 216"
         stroke-miterlimit="10"
         id="path698" />
    </g>
    <g
       transform="translate(10,10) scale(1,1)"
       id="g704">
      <path
         fill="#000000"
         stroke="none"
         d="M 929.8373251423759 220.209517756016 L 940 216 L 929.8373251423758 211.790482243984"
         id="path702" />
    </g>
    <g
       transform="translate(10,10) scale(1,1)"
       id="g708">
      <path
         fill="none"
         stroke="#000000"
         d="M 929.8373251423759 220.209517756016 L 940 216 L 929.8373251423758 211.790482243984 L 929.8373251423759 220.209517756016"
         stroke-miterlimit="10"
         id="path706" />
    </g>
    <g
       transform="translate(10,10) scale(1,1)"
       id="g716">
      <g
         id="g714">
        <path
           fill="none"
           stroke="none"
           id="path710" />
        <text
           fill="#000000"
           stroke="none"
           font-family="Arial"
           font-size="13px"
           font-style="normal"
           font-weight="normal"
           text-decoration="none"
           x="692.5"
           y="212.5"
           id="text712">5 : elevatorCalled(floorNumber)</text>
      </g>
    </g>
    <g
       transform="translate(10,10) scale(1,1)"
       id="g720">
      <rect
         fill="#ffffff"
         stroke="none"
         x="940"
         y="216"
         width="13"
         height="80"
         id="rect718" />
    </g>
    <g
       transform="translate(10,10) scale(1,1)"
       id="g724">
      <path
         fill="none"
         stroke="#000000"
         d="M 940 216 L 953 216 L 953 296 L 940 296 L 940 216 Z Z"
         stroke-miterlimit="10"
         id="path722" />
    </g>
    <g
       transform="translate(10,10) scale(1,1)"
       id="g728">
      <path
         fill="none"
         stroke="#000000"
         d="M 953 224 L 1271 224"
         stroke-miterlimit="10"
         id="path726" />
    </g>
    <g
       transform="translate(10,10) scale(1,1)"
       id="g732">
      <path
         fill="#000000"
         stroke="none"
         d="M 1260.837325142376 228.209517756016 L 1271 224 L 1260.837325142376 219.790482243984"
         id="path730" />
    </g>
    <g
       transform="translate(10,10) scale(1,1)"
       id="g736">
      <path
         fill="none"
         stroke="#000000"
         d="M 1260.837325142376 228.209517756016 L 1271 224 L 1260.837325142376 219.790482243984 L 1260.837325142376 228.209517756016"
         stroke-miterlimit="10"
         id="path734" />
    </g>
    <g
       transform="translate(10,10) scale(1,1)"
       id="g744">
      <g
         id="g742">
        <path
           fill="none"
           stroke="none"
           id="path738" />
        <text
           fill="#000000"
           stroke="none"
           font-family="Arial"
           font-size="13px"
           font-style="normal"
           font-weight="normal"
           text-decoration="none"
           x="1021.5"
           y="220.5"
           id="text740">6 : elevatorCalled(floorNumber)</text>
      </g>
    </g>
    <g
       transform="translate(10,10) scale(1,1)"
       id="g748">
      <rect
         fill="#ffffff"
         stroke="none"
         x="1271"
         y="224"
         width="13"
         height="48"
         id="rect746" />
    </g>
    <g
       transform="translate(10,10) scale(1,1)"
       id="g752">
      <path
         fill="none"
         stroke="#000000"
         d="M 1271 224 L 1284 224 L 1284 272 L 1271 272 L 1271 224 Z Z"
         stroke-miterlimit="10"
         id="path750" />
    </g>
    <g
       transform="translate(10,10) scale(1,1)"
       id="g756">
      <path
         fill="none"
         stroke="#000000"
         d="M 1284 232 L 1592 232"
         stroke-miterlimit="10"
         id="path754" />
    </g>
    <g
       transform="translate(10,10) scale(1,1)"
       id="g760">
      <path
         fill="#000000"
         stroke="none"
         d="M 1581.837325142376 236.209517756016 L 1592 232 L 1581.837325142376 227.790482243984"
         id="path758" />
    </g>
    <g
       transform="translate(10,10) scale(1,1)"
       id="g764">
      <path
         fill="none"
         stroke="#000000"
         d="M 1581.837325142376 236.209517756016 L 1592 232 L 1581.837325142376 227.790482243984 L 1581.837325142376 236.209517756016"
         stroke-miterlimit="10"
         id="path762" />
    </g>
    <g
       transform="translate(10,10) scale(1,1)"
       id="g772">
      <g
         id="g770">
        <path
           fill="none"
           stroke="none"
           id="path766" />
        <text
           fill="#000000"
           stroke="none"
           font-family="Arial"
           font-size="13px"
           font-style="normal"
           font-weight="normal"
           text-decoration="none"
           x="1347.5"
           y="228.5"
           id="text768">7 : elevatorCalled(floorNumber)</text>
      </g>
    </g>
    <g
       transform="translate(10,10) scale(1,1)"
       id="g776">
      <rect
         fill="#ffffff"
         stroke="none"
         x="1592"
         y="232"
         width="13"
         height="32"
         id="rect774" />
    </g>
    <g
       transform="translate(10,10) scale(1,1)"
       id="g780">
      <path
         fill="none"
         stroke="#000000"
         d="M 1592 232 L 1605 232 L 1605 264 L 1592 264 L 1592 232 Z Z"
         stroke-miterlimit="10"
         id="path778" />
    </g>
    <g
       transform="translate(10,10) scale(1,1)"
       id="g784">
      <path
         fill="none"
         stroke="#000000"
         d="M 1599 264 L 1284 264"
         stroke-miterlimit="10"
         stroke-dasharray="3"
         id="path782" />
    </g>
    <g
       transform="translate(10,10) scale(1,1)"
       id="g788">
      <path
         fill="none"
         stroke="#000000"
         d="M 1294.162674857624 259.790482243984 L 1284 264 L 1294.162674857624 268.209517756016"
         stroke-miterlimit="10"
         id="path786" />
    </g>
    <g
       transform="translate(10,10) scale(1,1)"
       id="g796">
      <g
         id="g794">
        <path
           fill="none"
           stroke="none"
           id="path790" />
        <text
           fill="#000000"
           stroke="none"
           font-family="Arial"
           font-size="13px"
           font-style="normal"
           font-weight="normal"
           text-decoration="none"
           x="1407.5"
           y="280.5"
           id="text792">8 : elevator</text>
      </g>
    </g>
    <g
       transform="translate(10,10) scale(1,1)"
       id="g800">
      <path
         fill="none"
         stroke="#000000"
         d="M 1278 272 L 953 272"
         stroke-miterlimit="10"
         stroke-dasharray="3"
         id="path798" />
    </g>
    <g
       transform="translate(10,10) scale(1,1)"
       id="g804">
      <path
         fill="none"
         stroke="#000000"
         d="M 963.1626748576241 267.790482243984 L 953 272 L 963.1626748576241 276.209517756016"
         stroke-miterlimit="10"
         id="path802" />
    </g>
    <g
       transform="translate(10,10) scale(1,1)"
       id="g812">
      <g
         id="g810">
        <path
           fill="none"
           stroke="none"
           id="path806" />
        <text
           fill="#000000"
           stroke="none"
           font-family="Arial"
           font-size="13px"
           font-style="normal"
           font-weight="normal"
           text-decoration="none"
           x="1081.5"
           y="288.5"
           id="text808">9 : elevator</text>
      </g>
    </g>
    <g
       transform="translate(10,10) scale(1,1)"
       id="g816">
      <path
         fill="none"
         stroke="#000000"
         d="M 947 296 L 626 296"
         stroke-miterlimit="10"
         stroke-dasharray="3"
         id="path814" />
    </g>
    <g
       transform="translate(10,10) scale(1,1)"
       id="g820">
      <path
         fill="none"
         stroke="#000000"
         d="M 636.1626748576241 291.790482243984 L 626 296 L 636.1626748576241 300.209517756016"
         stroke-miterlimit="10"
         id="path818" />
    </g>
    <g
       transform="translate(10,10) scale(1,1)"
       id="g828">
      <g
         id="g826">
        <path
           fill="none"
           stroke="none"
           id="path822" />
        <text
           fill="#000000"
           stroke="none"
           font-family="Arial"
           font-size="13px"
           font-style="normal"
           font-weight="normal"
           text-decoration="none"
           x="749.5"
           y="312.5"
           id="text824">10 : elevator</text>
      </g>
    </g>
    <g
       transform="translate(10,10) scale(1,1)"
       id="g832">
      <path
         fill="none"
         stroke="#000000"
         d="M 65 376 L 210 376"
         stroke-miterlimit="10"
         id="path830" />
    </g>
    <g
       transform="translate(10,10) scale(1,1)"
       id="g836">
      <path
         fill="#000000"
         stroke="none"
         d="M 199.83732514237585 380.209517756016 L 210 376 L 199.83732514237585 371.790482243984"
         id="path834" />
    </g>
    <g
       transform="translate(10,10) scale(1,1)"
       id="g840">
      <path
         fill="none"
         stroke="#000000"
         d="M 199.83732514237585 380.209517756016 L 210 376 L 199.83732514237585 371.790482243984 L 199.83732514237585 380.209517756016"
         stroke-miterlimit="10"
         id="path838" />
    </g>
    <g
       transform="translate(10,10) scale(1,1)"
       id="g848">
      <g
         id="g846">
        <path
           fill="none"
           stroke="none"
           id="path842" />
        <text
           fill="#000000"
           stroke="none"
           font-family="Arial"
           font-size="13px"
           font-style="normal"
           font-weight="normal"
           text-decoration="none"
           x="78.5"
           y="372.5"
           id="text844">11 : buttonPressed()</text>
      </g>
    </g>
    <g
       transform="translate(10,10) scale(1,1)"
       id="g852">
      <rect
         fill="#ffffff"
         stroke="none"
         x="210"
         y="376"
         width="13"
         height="28"
         id="rect850" />
    </g>
    <g
       transform="translate(10,10) scale(1,1)"
       id="g856">
      <path
         fill="none"
         stroke="#000000"
         d="M 210 376 L 223 376 L 223 404 L 210 404 L 210 376 Z Z"
         stroke-miterlimit="10"
         id="path854" />
    </g>
    <g
       transform="translate(10,10) scale(1,1)"
       id="g860">
      <path
         fill="none"
         stroke="#000000"
         d="M 223 384 L 613 384"
         stroke-miterlimit="10"
         id="path858" />
    </g>
    <g
       transform="translate(10,10) scale(1,1)"
       id="g864">
      <path
         fill="#000000"
         stroke="none"
         d="M 602.8373251423759 388.209517756016 L 613 384 L 602.8373251423758 379.790482243984"
         id="path862" />
    </g>
    <g
       transform="translate(10,10) scale(1,1)"
       id="g868">
      <path
         fill="none"
         stroke="#000000"
         d="M 602.8373251423759 388.209517756016 L 613 384 L 602.8373251423758 379.790482243984 L 602.8373251423759 388.209517756016"
         stroke-miterlimit="10"
         id="path866" />
    </g>
    <g
       transform="translate(10,10) scale(1,1)"
       id="g876">
      <g
         id="g874">
        <path
           fill="none"
           stroke="none"
           id="path870" />
        <text
           fill="#000000"
           stroke="none"
           font-family="Arial"
           font-size="13px"
           font-style="normal"
           font-weight="normal"
           text-decoration="none"
           x="312.5"
           y="380.5"
           id="text872">12 : floorButtonClicked(floorNumber)</text>
      </g>
    </g>
    <g
       transform="translate(10,10) scale(1,1)"
       id="g880">
      <rect
         fill="#ffffff"
         stroke="none"
         x="613"
         y="384"
         width="13"
         height="128"
         id="rect878" />
    </g>
    <g
       transform="translate(10,10) scale(1,1)"
       id="g884">
      <path
         fill="none"
         stroke="#000000"
         d="M 613 384 L 626 384 L 626 512 L 613 512 L 613 384 Z Z"
         stroke-miterlimit="10"
         id="path882" />
    </g>
    <g
       transform="translate(10,10) scale(1,1)"
       id="g888">
      <path
         fill="none"
         stroke="#000000"
         d="M 626 392 L 940 392"
         stroke-miterlimit="10"
         id="path886" />
    </g>
    <g
       transform="translate(10,10) scale(1,1)"
       id="g892">
      <path
         fill="#000000"
         stroke="none"
         d="M 929.8373251423759 396.209517756016 L 940 392 L 929.8373251423758 387.790482243984"
         id="path890" />
    </g>
    <g
       transform="translate(10,10) scale(1,1)"
       id="g896">
      <path
         fill="none"
         stroke="#000000"
         d="M 929.8373251423759 396.209517756016 L 940 392 L 929.8373251423758 387.790482243984 L 929.8373251423759 396.209517756016"
         stroke-miterlimit="10"
         id="path894" />
    </g>
    <g
       transform="translate(10,10) scale(1,1)"
       id="g904">
      <g
         id="g902">
        <path
           fill="none"
           stroke="none"
           id="path898" />
        <text
           fill="#000000"
           stroke="none"
           font-family="Arial"
           font-size="13px"
           font-style="normal"
           font-weight="normal"
           text-decoration="none"
           x="651.5"
           y="388.5"
           id="text900">13 : goToFloor(elevatorNumber, floorNumber)</text>
      </g>
    </g>
    <g
       transform="translate(10,10) scale(1,1)"
       id="g908">
      <rect
         fill="#ffffff"
         stroke="none"
         x="940"
         y="392"
         width="13"
         height="28"
         id="rect906" />
    </g>
    <g
       transform="translate(10,10) scale(1,1)"
       id="g912">
      <path
         fill="none"
         stroke="#000000"
         d="M 940 392 L 953 392 L 953 420 L 940 420 L 940 392 Z Z"
         stroke-miterlimit="10"
         id="path910" />
    </g>
    <g
       transform="translate(10,10) scale(1,1)"
       id="g916">
      <path
         fill="none"
         stroke="#000000"
         d="M 953 400 L 1271 400"
         stroke-miterlimit="10"
         id="path914" />
    </g>
    <g
       transform="translate(10,10) scale(1,1)"
       id="g920">
      <path
         fill="#000000"
         stroke="none"
         d="M 1260.837325142376 404.209517756016 L 1271 400 L 1260.837325142376 395.790482243984"
         id="path918" />
    </g>
    <g
       transform="translate(10,10) scale(1,1)"
       id="g924">
      <path
         fill="none"
         stroke="#000000"
         d="M 1260.837325142376 404.209517756016 L 1271 400 L 1260.837325142376 395.790482243984 L 1260.837325142376 404.209517756016"
         stroke-miterlimit="10"
         id="path922" />
    </g>
    <g
       transform="translate(10,10) scale(1,1)"
       id="g932">
      <g
         id="g930">
        <path
           fill="none"
           stroke="none"
           id="path926" />
        <text
           fill="#000000"
           stroke="none"
           font-family="Arial"
           font-size="13px"
           font-style="normal"
           font-weight="normal"
           text-decoration="none"
           x="980.5"
           y="396.5"
           id="text928">14 : goToFloor(elevatorNumber, floorNumber)</text>
      </g>
    </g>
    <g
       transform="translate(10,10) scale(1,1)"
       id="g936">
      <rect
         fill="#ffffff"
         stroke="none"
         x="1271"
         y="400"
         width="13"
         height="28"
         id="rect934" />
    </g>
    <g
       transform="translate(10,10) scale(1,1)"
       id="g940">
      <path
         fill="none"
         stroke="#000000"
         d="M 1271 400 L 1284 400 L 1284 428 L 1271 428 L 1271 400 Z Z"
         stroke-miterlimit="10"
         id="path938" />
    </g>
    <g
       transform="translate(10,10) scale(1,1)"
       id="g944">
      <path
         fill="none"
         stroke="#000000"
         d="M 1284 408 L 1592 408"
         stroke-miterlimit="10"
         id="path942" />
    </g>
    <g
       transform="translate(10,10) scale(1,1)"
       id="g948">
      <path
         fill="#000000"
         stroke="none"
         d="M 1581.837325142376 412.209517756016 L 1592 408 L 1581.837325142376 403.790482243984"
         id="path946" />
    </g>
    <g
       transform="translate(10,10) scale(1,1)"
       id="g952">
      <path
         fill="none"
         stroke="#000000"
         d="M 1581.837325142376 412.209517756016 L 1592 408 L 1581.837325142376 403.790482243984 L 1581.837325142376 412.209517756016"
         stroke-miterlimit="10"
         id="path950" />
    </g>
    <g
       transform="translate(10,10) scale(1,1)"
       id="g960">
      <g
         id="g958">
        <path
           fill="none"
           stroke="none"
           id="path954" />
        <text
           fill="#000000"
           stroke="none"
           font-family="Arial"
           font-size="13px"
           font-style="normal"
           font-weight="normal"
           text-decoration="none"
           x="1306.5"
           y="404.5"
           id="text956">15 : goToFloor(elevatorNumber, floorNumber)</text>
      </g>
    </g>
    <g
       transform="translate(10,10) scale(1,1)"
       id="g964">
      <rect
         fill="#ffffff"
         stroke="none"
         x="1592"
         y="408"
         width="13"
         height="28"
         id="rect962" />
    </g>
    <g
       transform="translate(10,10) scale(1,1)"
       id="g968">
      <path
         fill="none"
         stroke="#000000"
         d="M 1592 408 L 1605 408 L 1605 436 L 1592 436 L 1592 408 Z Z"
         stroke-miterlimit="10"
         id="path966" />
    </g>
    <g
       transform="translate(10,10) scale(1,1)"
       id="g972">
      <path
         fill="none"
         stroke="#000000"
         d="M 626 496 L 940 496"
         stroke-miterlimit="10"
         id="path970" />
    </g>
    <g
       transform="translate(10,10) scale(1,1)"
       id="g976">
      <path
         fill="#000000"
         stroke="none"
         d="M 929.8373251423759 500.209517756016 L 940 496 L 929.8373251423758 491.790482243984"
         id="path974" />
    </g>
    <g
       transform="translate(10,10) scale(1,1)"
       id="g980">
      <path
         fill="none"
         stroke="#000000"
         d="M 929.8373251423759 500.209517756016 L 940 496 L 929.8373251423758 491.790482243984 L 929.8373251423759 500.209517756016"
         stroke-miterlimit="10"
         id="path978" />
    </g>
    <g
       transform="translate(10,10) scale(1,1)"
       id="g988">
      <g
         id="g986">
        <path
           fill="none"
           stroke="none"
           id="path982" />
        <text
           fill="#000000"
           stroke="none"
           font-family="Arial"
           font-size="13px"
           font-style="normal"
           font-weight="normal"
           text-decoration="none"
           x="670.5"
           y="492.5"
           id="text984">16 : freeBusyElevator(elevatorNumber)</text>
      </g>
    </g>
    <g
       transform="translate(10,10) scale(1,1)"
       id="g992">
      <rect
         fill="#ffffff"
         stroke="none"
         x="940"
         y="496"
         width="13"
         height="28"
         id="rect990" />
    </g>
    <g
       transform="translate(10,10) scale(1,1)"
       id="g996">
      <path
         fill="none"
         stroke="#000000"
         d="M 940 496 L 953 496 L 953 524 L 940 524 L 940 496 Z Z"
         stroke-miterlimit="10"
         id="path994" />
    </g>
    <g
       transform="translate(10,10) scale(1,1)"
       id="g1000">
      <path
         fill="none"
         stroke="#000000"
         d="M 953 504 L 1271 504"
         stroke-miterlimit="10"
         id="path998" />
    </g>
    <g
       transform="translate(10,10) scale(1,1)"
       id="g1004">
      <path
         fill="#000000"
         stroke="none"
         d="M 1260.837325142376 508.209517756016 L 1271 504 L 1260.837325142376 499.790482243984"
         id="path1002" />
    </g>
    <g
       transform="translate(10,10) scale(1,1)"
       id="g1008">
      <path
         fill="none"
         stroke="#000000"
         d="M 1260.837325142376 508.209517756016 L 1271 504 L 1260.837325142376 499.790482243984 L 1260.837325142376 508.209517756016"
         stroke-miterlimit="10"
         id="path1006" />
    </g>
    <g
       transform="translate(10,10) scale(1,1)"
       id="g1016">
      <g
         id="g1014">
        <path
           fill="none"
           stroke="none"
           id="path1010" />
        <text
           fill="#000000"
           stroke="none"
           font-family="Arial"
           font-size="13px"
           font-style="normal"
           font-weight="normal"
           text-decoration="none"
           x="999.5"
           y="500.5"
           id="text1012">17 : freeBusyElevator(elevatorNumber)</text>
      </g>
    </g>
    <g
       transform="translate(10,10) scale(1,1)"
       id="g1020">
      <rect
         fill="#ffffff"
         stroke="none"
         x="1271"
         y="504"
         width="13"
         height="28"
         id="rect1018" />
    </g>
    <g
       transform="translate(10,10) scale(1,1)"
       id="g1024">
      <path
         fill="none"
         stroke="#000000"
         d="M 1271 504 L 1284 504 L 1284 532 L 1271 532 L 1271 504 Z Z"
         stroke-miterlimit="10"
         id="path1022" />
    </g>
    <g
       transform="translate(10,10) scale(1,1)"
       id="g1028">
      <path
         fill="none"
         stroke="#000000"
         d="M 1284 512 L 1592 512"
         stroke-miterlimit="10"
         id="path1026" />
    </g>
    <g
       transform="translate(10,10) scale(1,1)"
       id="g1032">
      <path
         fill="#000000"
         stroke="none"
         d="M 1581.837325142376 516.209517756016 L 1592 512 L 1581.837325142376 507.790482243984"
         id="path1030" />
    </g>
    <g
       transform="translate(10,10) scale(1,1)"
       id="g1036">
      <path
         fill="none"
         stroke="#000000"
         d="M 1581.837325142376 516.209517756016 L 1592 512 L 1581.837325142376 507.790482243984 L 1581.837325142376 516.209517756016"
         stroke-miterlimit="10"
         id="path1034" />
    </g>
    <g
       transform="translate(10,10) scale(1,1)"
       id="g1044">
      <g
         id="g1042">
        <path
           fill="none"
           stroke="none"
           id="path1038" />
        <text
           fill="#000000"
           stroke="none"
           font-family="Arial"
           font-size="13px"
           font-style="normal"
           font-weight="normal"
           text-decoration="none"
           x="1325.5"
           y="508.5"
           id="text1040">18 : freeBusyElevator(elevatorNumber)</text>
      </g>
    </g>
    <g
       transform="translate(10,10) scale(1,1)"
       id="g1048">
      <rect
         fill="#ffffff"
         stroke="none"
         x="1592"
         y="512"
         width="13"
         height="28"
         id="rect1046" />
    </g>
    <g
       transform="translate(10,10) scale(1,1)"
       id="g1052">
      <path
         fill="none"
         stroke="#000000"
         d="M 1592 512 L 1605 512 L 1605 540 L 1592 540 L 1592 512 Z Z"
         stroke-miterlimit="10"
         id="path1050" />
    </g>
  </g>
</svg>
