<?xml version="1.0" encoding="UTF-8" standalone="no"?>
<svg
   version="1.1"
   width="1031.20263671875"
   height="652"
   id="svg678"
   sodipodi:docname="Use Case Diagram.svg"
   inkscape:version="1.2.1 (9c6d41e410, 2022-07-14)"
   xmlns:inkscape="http://www.inkscape.org/namespaces/inkscape"
   xmlns:sodipodi="http://sodipodi.sourceforge.net/DTD/sodipodi-0.dtd"
   xmlns="http://www.w3.org/2000/svg"
   xmlns:svg="http://www.w3.org/2000/svg">
  <sodipodi:namedview
     id="namedview680"
     pagecolor="#ffffff"
     bordercolor="#000000"
     borderopacity="0.25"
     inkscape:showpageshadow="2"
     inkscape:pageopacity="0.0"
     inkscape:pagecheckerboard="0"
     inkscape:deskcolor="#d1d1d1"
     showgrid="false"
     inkscape:zoom="1.2331288"
     inkscape:cx="516.16667"
     inkscape:cy="326.40547"
     inkscape:window-width="1920"
     inkscape:window-height="991"
     inkscape:window-x="-9"
     inkscape:window-y="-9"
     inkscape:window-maximized="1"
     inkscape:current-layer="svg678" />
  <defs
     id="defs2" />
  <g
     id="g676">
    <g
       transform="translate(-22,-6) scale(1,1)"
       id="g270">
      <path
         fill="none"
         stroke="#000000"
         d="M 192 16 L 792 16 L 792 648 L 192 648 L 192 16"
         stroke-miterlimit="10"
         id="path268" />
    </g>
    <g
       transform="translate(-22,-6) scale(1,1)"
       id="g274">
      <path
         fill="#ffffff"
         stroke="none"
         d="M 192 16 L 192 38 L 331.54443359375 38 L 342.54443359375 27 L 342.54443359375 16 L 192 16"
         id="path272" />
    </g>
    <g
       transform="translate(-22,-6) scale(1,1)"
       id="g278">
      <path
         fill="none"
         stroke="#000000"
         d="M 192 16 L 192 38 L 331.54443359375 38 L 342.54443359375 27 L 342.54443359375 16 L 192 16 L 192 16"
         stroke-miterlimit="10"
         id="path276" />
    </g>
    <g
       transform="translate(-22,-6) scale(1,1)"
       id="g286">
      <g
         id="g284">
        <path
           fill="none"
           stroke="none"
           id="path280" />
        <text
           fill="#000000"
           stroke="none"
           font-family="Arial"
           font-size="13px"
           font-style="normal"
           font-weight="normal"
           text-decoration="none"
           x="216.72998046875"
           y="33.5"
           id="text282">Use Case Diagram</text>
      </g>
    </g>
    <g
       transform="translate(-22,-6) scale(1,1)"
       id="g294">
      <g
         id="g292">
        <path
           fill="none"
           stroke="none"
           id="path288" />
        <text
           fill="#000000"
           stroke="none"
           font-family="Arial"
           font-size="13px"
           font-style="normal"
           font-weight="bold"
           text-decoration="none"
           x="197"
           y="33.5"
           id="text290">uc</text>
      </g>
    </g>
    <g
       transform="translate(-22,-6) scale(1,1)"
       id="g298">
      <path
         fill="#ffffff"
         stroke="none"
         d="M 83.10581818181818 137.84 C 83.10581818181818 128.539523968 90.44574257338182 121 99.5 121 C 108.55425742661818 121 115.89418181818182 128.539523968 115.89418181818182 137.84 C 115.89418181818182 147.140476032 108.55425742661818 154.68 99.5 154.68 C 90.44574257338182 154.68 83.10581818181818 147.140476032 83.10581818181818 137.84 Z"
         id="path296" />
    </g>
    <g
       transform="translate(-22,-6) scale(1,1)"
       id="g302">
      <path
         fill="none"
         stroke="#000000"
         d="M 83.10581818181818 137.84 C 83.10581818181818 128.539523968 90.44574257338182 121 99.5 121 C 108.55425742661818 121 115.89418181818182 128.539523968 115.89418181818182 137.84 C 115.89418181818182 147.140476032 108.55425742661818 154.68 99.5 154.68 C 90.44574257338182 154.68 83.10581818181818 147.140476032 83.10581818181818 137.84 Z"
         stroke-miterlimit="10"
         id="path300" />
    </g>
    <g
       transform="translate(-22,-6) scale(1,1)"
       id="g306">
      <path
         fill="none"
         stroke="#000000"
         d="M 99.5 154.68 L 99.5 187.32"
         stroke-miterlimit="10"
         id="path304" />
    </g>
    <g
       transform="translate(-22,-6) scale(1,1)"
       id="g310">
      <path
         fill="none"
         stroke="#000000"
         d="M 82.14145454545455 166.92000000000002 L 116.85854545454545 166.92000000000002"
         stroke-miterlimit="10"
         id="path308" />
    </g>
    <g
       transform="translate(-22,-6) scale(1,1)"
       id="g314">
      <path
         fill="none"
         stroke="#000000"
         d="M 99.5 187.32 L 75.39090909090909 221"
         stroke-miterlimit="10"
         id="path312" />
    </g>
    <g
       transform="translate(-22,-6) scale(1,1)"
       id="g318">
      <path
         fill="none"
         stroke="#000000"
         d="M 99.5 187.32 L 123.60909090909091 221"
         stroke-miterlimit="10"
         id="path316" />
    </g>
    <g
       transform="translate(-22,-6) scale(1,1)"
       id="g326">
      <g
         id="g324">
        <path
           fill="none"
           stroke="none"
           id="path320" />
        <text
           fill="#000000"
           stroke="none"
           font-family="Arial"
           font-size="13px"
           font-style="normal"
           font-weight="bold"
           text-decoration="none"
           x="85.7763671875"
           y="241.5"
           id="text322">User</text>
      </g>
    </g>
    <g
       transform="translate(-22,-6) scale(1,1)"
       id="g330">
      <path
         fill="#ffffff"
         stroke="none"
         d="M 965.9444412286932 129.84 C 965.9444412286932 120.539523968 973.2843656202568 113 982.338623046875 113 C 991.3928804734932 113 998.7328048650568 120.539523968 998.7328048650568 129.84 C 998.7328048650568 139.140476032 991.3928804734932 146.68 982.338623046875 146.68 C 973.2843656202568 146.68 965.9444412286932 139.140476032 965.9444412286932 129.84 Z"
         id="path328" />
    </g>
    <g
       transform="translate(-22,-6) scale(1,1)"
       id="g334">
      <path
         fill="none"
         stroke="#000000"
         d="M 965.9444412286932 129.84 C 965.9444412286932 120.539523968 973.2843656202568 113 982.338623046875 113 C 991.3928804734932 113 998.7328048650568 120.539523968 998.7328048650568 129.84 C 998.7328048650568 139.140476032 991.3928804734932 146.68 982.338623046875 146.68 C 973.2843656202568 146.68 965.9444412286932 139.140476032 965.9444412286932 129.84 Z"
         stroke-miterlimit="10"
         id="path332" />
    </g>
    <g
       transform="translate(-22,-6) scale(1,1)"
       id="g338">
      <path
         fill="none"
         stroke="#000000"
         d="M 982.338623046875 146.68 L 982.338623046875 179.32"
         stroke-miterlimit="10"
         id="path336" />
    </g>
    <g
       transform="translate(-22,-6) scale(1,1)"
       id="g342">
      <path
         fill="none"
         stroke="#000000"
         d="M 964.9800775923295 158.92000000000002 L 999.6971685014205 158.92000000000002"
         stroke-miterlimit="10"
         id="path340" />
    </g>
    <g
       transform="translate(-22,-6) scale(1,1)"
       id="g346">
      <path
         fill="none"
         stroke="#000000"
         d="M 982.338623046875 179.32 L 958.2295321377841 213"
         stroke-miterlimit="10"
         id="path344" />
    </g>
    <g
       transform="translate(-22,-6) scale(1,1)"
       id="g350">
      <path
         fill="none"
         stroke="#000000"
         d="M 982.338623046875 179.32 L 1006.4477139559659 213"
         stroke-miterlimit="10"
         id="path348" />
    </g>
    <g
       transform="translate(-22,-6) scale(1,1)"
       id="g358">
      <g
         id="g356">
        <path
           fill="none"
           stroke="none"
           id="path352" />
        <text
           fill="#000000"
           stroke="none"
           font-family="Arial"
           font-size="13px"
           font-style="normal"
           font-weight="bold"
           text-decoration="none"
           x="936.81640625"
           y="233.5"
           id="text354">Local Controller</text>
      </g>
    </g>
    <g
       transform="translate(-22,-6) scale(1,1)"
       id="g362">
      <path
         fill="#C0C0C0"
         stroke="none"
         d="M 431 74.5 C 431 54.893889599999994 458.3106272 39 492 39 C 525.6893728 39 553 54.893889599999994 553 74.5 C 553 94.1061104 525.6893728 110 492 110 C 458.3106272 110 431 94.1061104 431 74.5 Z"
         opacity="0.2"
         id="path360" />
    </g>
    <g
       transform="translate(-22,-6) scale(1,1)"
       id="g366">
      <path
         fill="#ffffff"
         stroke="none"
         d="M 424 67.5 C 424 47.893889599999994 451.3106272 32 485 32 C 518.6893728 32 546 47.893889599999994 546 67.5 C 546 87.1061104 518.6893728 103 485 103 C 451.3106272 103 424 87.1061104 424 67.5 Z"
         id="path364" />
    </g>
    <g
       transform="translate(-22,-6) scale(1,1)"
       id="g370">
      <path
         fill="none"
         stroke="#000000"
         d="M 424 67.5 C 424 47.893889599999994 451.3106272 32 485 32 C 518.6893728 32 546 47.893889599999994 546 67.5 C 546 87.1061104 518.6893728 103 485 103 C 451.3106272 103 424 87.1061104 424 67.5 Z"
         stroke-miterlimit="10"
         id="path368" />
    </g>
    <g
       transform="translate(-22,-6) scale(1,1)"
       id="g378">
      <g
         id="g376">
        <path
           fill="none"
           stroke="none"
           id="path372" />
        <text
           fill="#000000"
           stroke="none"
           font-family="Arial"
           font-size="13px"
           font-style="normal"
           font-weight="bold"
           text-decoration="none"
           x="448.872314453125"
           y="74.5"
           id="text374">Call elevator</text>
      </g>
    </g>
    <g
       transform="translate(-22,-6) scale(1,1)"
       id="g382">
      <path
         fill="#C0C0C0"
         stroke="none"
         d="M 383 198.5 C 383 181.1030288 432.6963872 167 494 167 C 555.3036128 167 605 181.1030288 605 198.5 C 605 215.8969712 555.3036128 230 494 230 C 432.6963872 230 383 215.8969712 383 198.5 Z"
         opacity="0.2"
         id="path380" />
    </g>
    <g
       transform="translate(-22,-6) scale(1,1)"
       id="g386">
      <path
         fill="#ffffff"
         stroke="none"
         d="M 376 191.5 C 376 174.1030288 425.6963872 160 487 160 C 548.3036128 160 598 174.1030288 598 191.5 C 598 208.8969712 548.3036128 223 487 223 C 425.6963872 223 376 208.8969712 376 191.5 Z"
         id="path384" />
    </g>
    <g
       transform="translate(-22,-6) scale(1,1)"
       id="g390">
      <path
         fill="none"
         stroke="#000000"
         d="M 376 191.5 C 376 174.1030288 425.6963872 160 487 160 C 548.3036128 160 598 174.1030288 598 191.5 C 598 208.8969712 548.3036128 223 487 223 C 425.6963872 223 376 208.8969712 376 191.5 Z"
         stroke-miterlimit="10"
         id="path388" />
    </g>
    <g
       transform="translate(-22,-6) scale(1,1)"
       id="g398">
      <g
         id="g396">
        <path
           fill="none"
           stroke="none"
           id="path392" />
        <text
           fill="#000000"
           stroke="none"
           font-family="Arial"
           font-size="13px"
           font-style="normal"
           font-weight="bold"
           text-decoration="none"
           x="417.997802734375"
           y="198.5"
           id="text394">Check for free elevators</text>
      </g>
    </g>
    <g
       transform="translate(-22,-6) scale(1,1)"
       id="g402">
      <path
         fill="none"
         stroke="#000000"
         d="M 486 104 L 486 159"
         stroke-miterlimit="10"
         stroke-dasharray="3"
         id="path400" />
    </g>
    <g
       transform="translate(-22,-6) scale(1,1)"
       id="g406">
      <path
         fill="none"
         stroke="#000000"
         d="M 481.790482243984 148.83732514237585 L 486 159 L 490.209517756016 148.83732514237585"
         stroke-miterlimit="10"
         id="path404" />
    </g>
    <g
       transform="translate(-22,-6) scale(1,1)"
       id="g414">
      <g
         id="g412">
        <path
           fill="none"
           stroke="none"
           id="path408" />
        <text
           fill="#000000"
           stroke="none"
           font-family="Arial"
           font-size="13px"
           font-style="normal"
           font-weight="normal"
           text-decoration="none"
           x="499.5"
           y="137.5"
           id="text410">«include»</text>
      </g>
    </g>
    <g
       transform="translate(-22,-6) scale(1,1)"
       id="g418">
      <path
         fill="#C0C0C0"
         stroke="none"
         d="M 431 466.5 C 431 446.8938896 459.4299152 431 494.5 431 C 529.5700848 431 558 446.8938896 558 466.5 C 558 486.1061104 529.5700848 502 494.5 502 C 459.4299152 502 431 486.1061104 431 466.5 Z"
         opacity="0.2"
         id="path416" />
    </g>
    <g
       transform="translate(-22,-6) scale(1,1)"
       id="g422">
      <path
         fill="#ffffff"
         stroke="none"
         d="M 424 459.5 C 424 439.8938896 452.4299152 424 487.5 424 C 522.5700848 424 551 439.8938896 551 459.5 C 551 479.1061104 522.5700848 495 487.5 495 C 452.4299152 495 424 479.1061104 424 459.5 Z"
         id="path420" />
    </g>
    <g
       transform="translate(-22,-6) scale(1,1)"
       id="g426">
      <path
         fill="none"
         stroke="#000000"
         d="M 424 459.5 C 424 439.8938896 452.4299152 424 487.5 424 C 522.5700848 424 551 439.8938896 551 459.5 C 551 479.1061104 522.5700848 495 487.5 495 C 452.4299152 495 424 479.1061104 424 459.5 Z"
         stroke-miterlimit="10"
         id="path424" />
    </g>
    <g
       transform="translate(-22,-6) scale(1,1)"
       id="g434">
      <g
         id="g432">
        <path
           fill="none"
           stroke="none"
           id="path428" />
        <text
           fill="#000000"
           stroke="none"
           font-family="Arial"
           font-size="13px"
           font-style="normal"
           font-weight="bold"
           text-decoration="none"
           x="450.6455078125"
           y="466.5"
           id="text430">Choose floor</text>
      </g>
    </g>
    <g
       transform="translate(-22,-6) scale(1,1)"
       id="g438">
      <path
         fill="none"
         stroke="#000000"
         d="M 152 221 L 436 423"
         stroke-miterlimit="10"
         id="path436" />
    </g>
    <g
       transform="translate(-22,-6) scale(1,1)"
       id="g446">
      <g
         id="g444">
        <path
           fill="none"
           stroke="none"
           id="path440" />
        <text
           fill="#000000"
           stroke="none"
           font-family="Arial"
           font-size="13px"
           font-style="normal"
           font-weight="normal"
           text-decoration="none"
           x="199.5"
           y="379.5"
           id="text442">+choose floor by pressing one of the floor buttons</text>
      </g>
    </g>
    <g
       transform="translate(-22,-6) scale(1,1)"
       id="g450">
      <path
         fill="#C0C0C0"
         stroke="none"
         d="M 367 322.5 C 367 307.312168 424.9791184 295 496.5 295 C 568.0208815999999 295 626 307.312168 626 322.5 C 626 337.687832 568.0208815999999 350 496.5 350 C 424.9791184 350 367 337.687832 367 322.5 Z"
         opacity="0.2"
         id="path448" />
    </g>
    <g
       transform="translate(-22,-6) scale(1,1)"
       id="g454">
      <path
         fill="#ffffff"
         stroke="none"
         d="M 360 315.5 C 360 300.312168 417.9791184 288 489.5 288 C 561.0208815999999 288 619 300.312168 619 315.5 C 619 330.687832 561.0208815999999 343 489.5 343 C 417.9791184 343 360 330.687832 360 315.5 Z"
         id="path452" />
    </g>
    <g
       transform="translate(-22,-6) scale(1,1)"
       id="g458">
      <path
         fill="none"
         stroke="#000000"
         d="M 360 315.5 C 360 300.312168 417.9791184 288 489.5 288 C 561.0208815999999 288 619 300.312168 619 315.5 C 619 330.687832 561.0208815999999 343 489.5 343 C 417.9791184 343 360 330.687832 360 315.5 Z"
         stroke-miterlimit="10"
         id="path456" />
    </g>
    <g
       transform="translate(-22,-6) scale(1,1)"
       id="g466">
      <g
         id="g464">
        <path
           fill="none"
           stroke="none"
           id="path460" />
        <text
           fill="#000000"
           stroke="none"
           font-family="Arial"
           font-size="13px"
           font-style="normal"
           font-weight="bold"
           text-decoration="none"
           x="408.5673828125"
           y="322.5"
           id="text462">Send closer elevator to user</text>
      </g>
    </g>
    <g
       transform="translate(-22,-6) scale(1,1)"
       id="g470">
      <path
         fill="none"
         stroke="#000000"
         d="M 599 187 L 927 177"
         stroke-miterlimit="10"
         id="path468" />
    </g>
    <g
       transform="translate(-22,-6) scale(1,1)"
       id="g474">
      <path
         fill="none"
         stroke="#000000"
         d="M 488 224 L 489 287"
         stroke-miterlimit="10"
         stroke-dasharray="3"
         id="path472" />
    </g>
    <g
       transform="translate(-22,-6) scale(1,1)"
       id="g478">
      <path
         fill="none"
         stroke="#000000"
         d="M 484.62972046170086 276.9054144831438 L 489 287 L 493.0476955750244 276.7717958305513"
         stroke-miterlimit="10"
         id="path476" />
    </g>
    <g
       transform="translate(-22,-6) scale(1,1)"
       id="g486">
      <g
         id="g484">
        <path
           fill="none"
           stroke="none"
           id="path480" />
        <text
           fill="#000000"
           stroke="none"
           font-family="Arial"
           font-size="13px"
           font-style="normal"
           font-weight="normal"
           text-decoration="none"
           x="492.5"
           y="262.5"
           id="text482">+if there are free elevators</text>
      </g>
    </g>
    <g
       transform="translate(-22,-6) scale(1,1)"
       id="g490">
      <path
         fill="none"
         stroke="#000000"
         d="M 489 344 L 488 423"
         stroke-miterlimit="10"
         stroke-dasharray="3"
         id="path488" />
    </g>
    <g
       transform="translate(-22,-6) scale(1,1)"
       id="g494">
      <path
         fill="none"
         stroke="#000000"
         d="M 483.9194505994928 412.78485846451355 L 488 423 L 492.3378116984575 412.89141999741184"
         stroke-miterlimit="10"
         id="path492" />
    </g>
    <g
       transform="translate(-22,-6) scale(1,1)"
       id="g502">
      <g
         id="g500">
        <path
           fill="none"
           stroke="none"
           id="path496" />
        <text
           fill="#000000"
           stroke="none"
           font-family="Arial"
           font-size="13px"
           font-style="normal"
           font-weight="normal"
           text-decoration="none"
           x="498.5"
           y="389.5"
           id="text498">«include»</text>
      </g>
    </g>
    <g
       transform="translate(-22,-6) scale(1,1)"
       id="g506">
      <path
         fill="#C0C0C0"
         stroke="none"
         d="M 407 582.5 C 407 565.1030288 446.3989376 551 495 551 C 543.6010624 551 583 565.1030288 583 582.5 C 583 599.8969712 543.6010624 614 495 614 C 446.3989376 614 407 599.8969712 407 582.5 Z"
         opacity="0.2"
         id="path504" />
    </g>
    <g
       transform="translate(-22,-6) scale(1,1)"
       id="g510">
      <path
         fill="#ffffff"
         stroke="none"
         d="M 400 575.5 C 400 558.1030288 439.3989376 544 488 544 C 536.6010624 544 576 558.1030288 576 575.5 C 576 592.8969712 536.6010624 607 488 607 C 439.3989376 607 400 592.8969712 400 575.5 Z"
         id="path508" />
    </g>
    <g
       transform="translate(-22,-6) scale(1,1)"
       id="g514">
      <path
         fill="none"
         stroke="#000000"
         d="M 400 575.5 C 400 558.1030288 439.3989376 544 488 544 C 536.6010624 544 576 558.1030288 576 575.5 C 576 592.8969712 536.6010624 607 488 607 C 439.3989376 607 400 592.8969712 400 575.5 Z"
         stroke-miterlimit="10"
         id="path512" />
    </g>
    <g
       transform="translate(-22,-6) scale(1,1)"
       id="g522">
      <g
         id="g520">
        <path
           fill="none"
           stroke="none"
           id="path516" />
        <text
           fill="#000000"
           stroke="none"
           font-family="Arial"
           font-size="13px"
           font-style="normal"
           font-weight="bold"
           text-decoration="none"
           x="434.885986328125"
           y="582.5"
           id="text518">Go to chosen floor</text>
      </g>
    </g>
    <g
       transform="translate(-22,-6) scale(1,1)"
       id="g526">
      <path
         fill="none"
         stroke="#000000"
         d="M 588 287 L 927 191"
         stroke-miterlimit="10"
         id="path524" />
    </g>
    <g
       transform="translate(-22,-6) scale(1,1)"
       id="g530">
      <path
         fill="none"
         stroke="#000000"
         d="M 487 496 L 488 543"
         stroke-miterlimit="10"
         stroke-dasharray="3"
         id="path528" />
    </g>
    <g
       transform="translate(-22,-6) scale(1,1)"
       id="g534">
      <path
         fill="none"
         stroke="#000000"
         d="M 483.5752565323953 532.9291685921227 L 488 543 L 491.9923870697424 532.7500807083493"
         stroke-miterlimit="10"
         id="path532" />
    </g>
    <g
       transform="translate(-22,-6) scale(1,1)"
       id="g542">
      <g
         id="g540">
        <path
           fill="none"
           stroke="none"
           id="path536" />
        <text
           fill="#000000"
           stroke="none"
           font-family="Arial"
           font-size="13px"
           font-style="normal"
           font-weight="normal"
           text-decoration="none"
           x="495.5"
           y="516.5"
           id="text538">«include»</text>
      </g>
    </g>
    <g
       transform="translate(-22,-6) scale(1,1)"
       id="g546">
      <path
         fill="#ffffff"
         stroke="none"
         d="M 73.33883149857954 335.12 C 73.33883149857954 327.321738624 79.52739520127045 321 87.161376953125 321 C 94.79535870497955 321 100.98392240767046 327.321738624 100.98392240767046 335.12 C 100.98392240767046 342.91826137600003 94.79535870497955 349.24 87.161376953125 349.24 C 79.52739520127045 349.24 73.33883149857954 342.91826137600003 73.33883149857954 335.12 Z"
         id="path544" />
    </g>
    <g
       transform="translate(-22,-6) scale(1,1)"
       id="g550">
      <path
         fill="none"
         stroke="#000000"
         d="M 73.33883149857954 335.12 C 73.33883149857954 327.321738624 79.52739520127045 321 87.161376953125 321 C 94.79535870497955 321 100.98392240767046 327.321738624 100.98392240767046 335.12 C 100.98392240767046 342.91826137600003 94.79535870497955 349.24 87.161376953125 349.24 C 79.52739520127045 349.24 73.33883149857954 342.91826137600003 73.33883149857954 335.12 Z"
         stroke-miterlimit="10"
         id="path548" />
    </g>
    <g
       transform="translate(-22,-6) scale(1,1)"
       id="g554">
      <path
         fill="none"
         stroke="#000000"
         d="M 87.161376953125 349.24 L 87.161376953125 376.76"
         stroke-miterlimit="10"
         id="path552" />
    </g>
    <g
       transform="translate(-22,-6) scale(1,1)"
       id="g558">
      <path
         fill="none"
         stroke="#000000"
         d="M 72.52574058948863 359.56 L 101.79701331676137 359.56"
         stroke-miterlimit="10"
         id="path556" />
    </g>
    <g
       transform="translate(-22,-6) scale(1,1)"
       id="g562">
      <path
         fill="none"
         stroke="#000000"
         d="M 87.161376953125 376.76 L 66.83410422585227 405"
         stroke-miterlimit="10"
         id="path560" />
    </g>
    <g
       transform="translate(-22,-6) scale(1,1)"
       id="g566">
      <path
         fill="none"
         stroke="#000000"
         d="M 87.161376953125 376.76 L 107.48864968039773 405"
         stroke-miterlimit="10"
         id="path564" />
    </g>
    <g
       transform="translate(-22,-6) scale(1,1)"
       id="g574">
      <g
         id="g572">
        <path
           fill="none"
           stroke="none"
           id="path568" />
        <text
           fill="#000000"
           stroke="none"
           font-family="Arial"
           font-size="13px"
           font-style="normal"
           font-weight="bold"
           text-decoration="none"
           x="55.365966796875"
           y="425.5"
           id="text570">Call Button</text>
      </g>
    </g>
    <g
       transform="translate(-22,-6) scale(1,1)"
       id="g578">
      <path
         fill="#ffffff"
         stroke="none"
         d="M 66.01672727272728 463.28999999999996 C 66.01672727272728 455.39785020799997 72.27725101847273 449 80 449 C 87.72274898152727 449 93.98327272727272 455.39785020799997 93.98327272727272 463.28999999999996 C 93.98327272727272 471.18214979199996 87.72274898152727 477.58 80 477.58 C 72.27725101847273 477.58 66.01672727272728 471.18214979199996 66.01672727272728 463.28999999999996 Z"
         id="path576" />
    </g>
    <g
       transform="translate(-22,-6) scale(1,1)"
       id="g582">
      <path
         fill="none"
         stroke="#000000"
         d="M 66.01672727272728 463.28999999999996 C 66.01672727272728 455.39785020799997 72.27725101847273 449 80 449 C 87.72274898152727 449 93.98327272727272 455.39785020799997 93.98327272727272 463.28999999999996 C 93.98327272727272 471.18214979199996 87.72274898152727 477.58 80 477.58 C 72.27725101847273 477.58 66.01672727272728 471.18214979199996 66.01672727272728 463.28999999999996 Z"
         stroke-miterlimit="10"
         id="path580" />
    </g>
    <g
       transform="translate(-22,-6) scale(1,1)"
       id="g586">
      <path
         fill="none"
         stroke="#000000"
         d="M 80 477.58 L 80 505.42"
         stroke-miterlimit="10"
         id="path584" />
    </g>
    <g
       transform="translate(-22,-6) scale(1,1)"
       id="g590">
      <path
         fill="none"
         stroke="#000000"
         d="M 65.19418181818182 488.02 L 94.80581818181818 488.02"
         stroke-miterlimit="10"
         id="path588" />
    </g>
    <g
       transform="translate(-22,-6) scale(1,1)"
       id="g594">
      <path
         fill="none"
         stroke="#000000"
         d="M 80 505.42 L 59.43636363636364 534"
         stroke-miterlimit="10"
         id="path592" />
    </g>
    <g
       transform="translate(-22,-6) scale(1,1)"
       id="g598">
      <path
         fill="none"
         stroke="#000000"
         d="M 80 505.42 L 100.56363636363636 534"
         stroke-miterlimit="10"
         id="path596" />
    </g>
    <g
       transform="translate(-22,-6) scale(1,1)"
       id="g606">
      <g
         id="g604">
        <path
           fill="none"
           stroke="none"
           id="path600" />
        <text
           fill="#000000"
           stroke="none"
           font-family="Arial"
           font-size="13px"
           font-style="normal"
           font-weight="bold"
           text-decoration="none"
           x="44.5927734375"
           y="554.5"
           id="text602">Floor Button</text>
      </g>
    </g>
    <g
       transform="translate(-22,-6) scale(1,1)"
       id="g610">
      <path
         fill="none"
         stroke="#000000"
         d="M 127 344 L 437 104"
         stroke-miterlimit="10"
         id="path608" />
    </g>
    <g
       transform="translate(-22,-6) scale(1,1)"
       id="g614">
      <path
         fill="none"
         stroke="#000000"
         d="M 129 499 L 423 466"
         stroke-miterlimit="10"
         id="path612" />
    </g>
    <g
       transform="translate(-22,-6) scale(1,1)"
       id="g618">
      <path
         fill="none"
         stroke="#000000"
         d="M 927 220 L 528 543"
         stroke-miterlimit="10"
         id="path616" />
    </g>
    <g
       transform="translate(-22,-6) scale(1,1)"
       id="g622">
      <path
         fill="#ffffff"
         stroke="none"
         d="M 971.6180456321023 295.28999999999996 C 971.6180456321023 287.39785020799997 977.8785693778477 281 985.601318359375 281 C 993.3240673409023 281 999.5845910866477 287.39785020799997 999.5845910866477 295.28999999999996 C 999.5845910866477 303.18214979199996 993.3240673409023 309.58 985.601318359375 309.58 C 977.8785693778477 309.58 971.6180456321023 303.18214979199996 971.6180456321023 295.28999999999996 Z"
         id="path620" />
    </g>
    <g
       transform="translate(-22,-6) scale(1,1)"
       id="g626">
      <path
         fill="none"
         stroke="#000000"
         d="M 971.6180456321023 295.28999999999996 C 971.6180456321023 287.39785020799997 977.8785693778477 281 985.601318359375 281 C 993.3240673409023 281 999.5845910866477 287.39785020799997 999.5845910866477 295.28999999999996 C 999.5845910866477 303.18214979199996 993.3240673409023 309.58 985.601318359375 309.58 C 977.8785693778477 309.58 971.6180456321023 303.18214979199996 971.6180456321023 295.28999999999996 Z"
         stroke-miterlimit="10"
         id="path624" />
    </g>
    <g
       transform="translate(-22,-6) scale(1,1)"
       id="g630">
      <path
         fill="none"
         stroke="#000000"
         d="M 985.601318359375 309.58 L 985.601318359375 337.42"
         stroke-miterlimit="10"
         id="path628" />
    </g>
    <g
       transform="translate(-22,-6) scale(1,1)"
       id="g634">
      <path
         fill="none"
         stroke="#000000"
         d="M 970.7955001775568 320.02 L 1000.4071365411932 320.02"
         stroke-miterlimit="10"
         id="path632" />
    </g>
    <g
       transform="translate(-22,-6) scale(1,1)"
       id="g638">
      <path
         fill="none"
         stroke="#000000"
         d="M 985.601318359375 337.42 L 965.0376819957387 366"
         stroke-miterlimit="10"
         id="path636" />
    </g>
    <g
       transform="translate(-22,-6) scale(1,1)"
       id="g642">
      <path
         fill="none"
         stroke="#000000"
         d="M 985.601318359375 337.42 L 1006.1649547230113 366"
         stroke-miterlimit="10"
         id="path640" />
    </g>
    <g
       transform="translate(-22,-6) scale(1,1)"
       id="g650">
      <g
         id="g648">
        <path
           fill="none"
           stroke="none"
           id="path644" />
        <text
           fill="#000000"
           stroke="none"
           font-family="Arial"
           font-size="13px"
           font-style="normal"
           font-weight="bold"
           text-decoration="none"
           x="936.4736328125"
           y="386.5"
           id="text646">Server Controller</text>
      </g>
    </g>
    <g
       transform="translate(-22,-6) scale(1,1)"
       id="g654">
      <path
         fill="none"
         stroke="#000000"
         d="M 599 224 L 927 319"
         stroke-miterlimit="10"
         id="path652" />
    </g>
    <g
       transform="translate(-22,-6) scale(1,1)"
       id="g658">
      <path
         fill="none"
         stroke="#000000"
         d="M 927 334 L 620 321"
         stroke-miterlimit="10"
         id="path656" />
    </g>
    <g
       transform="translate(-22,-6) scale(1,1)"
       id="g662">
      <path
         fill="none"
         stroke="#000000"
         d="M 927 364 L 555 543"
         stroke-miterlimit="10"
         id="path660" />
    </g>
    <g
       transform="translate(-22,-6) scale(1,1)"
       id="g666">
      <path
         fill="none"
         stroke="#000000"
         d="M 152 167 L 423 86"
         stroke-miterlimit="10"
         id="path664" />
    </g>
    <g
       transform="translate(-22,-6) scale(1,1)"
       id="g674">
      <g
         id="g672">
        <path
           fill="none"
           stroke="none"
           id="path668" />
        <text
           fill="#000000"
           stroke="none"
           font-family="Arial"
           font-size="13px"
           font-style="normal"
           font-weight="normal"
           text-decoration="none"
           x="159.5"
           y="99.5"
           id="text670">+call elevator by pressing call button</text>
      </g>
    </g>
  </g>
</svg>
